<svg width="364" height="379" viewBox="0 0 364 379" fill="none" xmlns="http://www.w3.org/2000/svg">
<path d="M46.9537 130.042V98.8018C46.9537 98.8018 92.0568 309.727 91.3212 311.406C90.5856 313.085 77.5983 310.889 71.5383 309.16C67.4681 307.999 62.8644 308.151 58.901 306.353C55.587 304.849 55.8181 303.977 53.3563 301.23C52.1292 299.861 50.0261 297.64 49.0427 296.081C47.8228 294.147 46.8718 292.794 45.8639 290.67C43.3561 285.384 41.4379 281.861 41.3015 275.736C40.885 257.024 40.7061 238.328 40.7061 219.589C40.7061 198.811 43.1591 178.424 45.4368 157.959C46.4656 148.715 46.9537 139.329 46.9537 130.042Z" fill="#27AE60" stroke="#27AE60" stroke-width="3" stroke-linecap="round"/>
<path d="M59.7285 312.489V308.047L80.1634 312.489C80.1634 312.019 80.4522 311.143 80.6944 311.959C80.9299 312.753 81.0362 313.569 81.1613 314.381C81.2935 315.239 81.317 316.046 81.317 316.922C81.317 317.663 81.0052 317.689 80.3282 317.388C79.1905 316.884 77.6908 317.096 76.4463 317.096C75.8026 317.096 75.0806 316.952 74.3955 316.931C73.5864 316.908 72.3752 316.901 71.5939 316.685C70.5779 316.403 69.2687 316.602 68.2156 316.602C67.3569 316.602 66.5568 316.438 65.6978 316.438C64.4342 316.438 63.2863 315.707 62.1272 315.286C60.9741 314.867 59.7285 313.782 59.7285 312.489Z" fill="#27AE60" stroke="#27AE60" stroke-width="3" stroke-linecap="round"/>
<path d="M225.007 228.163C226.389 231.076 227.651 233.003 230.296 234.323C232.94 235.643 252.92 232.123 258.502 229.043C274.368 221.123 295.082 209.243 297.286 212.323C299.49 215.403 283.624 233.883 275.691 242.684C269.344 249.724 266.203 260.699 230.296 266.444L223.685 295.484L216.424 327.19L197.241 325.43C197.241 325.43 200.767 309.565 197.241 309.125C193.716 308.684 182.28 314.895 181.166 316.63C180.053 318.365 179.017 321.993 177.641 325.43H159.571C159.571 325.43 161.102 318.83 159.571 317.51C158.04 316.19 111.972 318.855 109.769 318.83C107.565 318.805 107.565 328.07 107.565 328.07L87.7329 324.11C87.7329 324.11 87.5005 317.045 87.5005 315.285C87.5005 313.965 83.5337 313.085 82.6525 312.645C81.7712 312.205 61.2893 204.094 61.2893 204.094L71.8667 197.828C71.8667 199.913 73.6059 202.028 73.6059 203.863C73.6059 205.754 77.6673 205.021 78.9412 205.021C80.7467 205.021 82.4641 204.192 84.2764 204.094C86.3664 203.981 88.7319 203.723 90.7714 203.271C95.9814 202.115 101.206 201.141 106.442 200.029C119.6 197.234 133.838 199.463 147.165 199.463C150.52 199.463 153.77 199.926 157.114 199.926C159.992 199.926 163.193 199.546 166.032 200.029C168.938 200.523 171.874 200.13 174.743 200.749C176.945 201.224 179.804 201.264 182.063 201.315C184.274 201.365 186.462 202.119 188.687 202.267C190.709 202.402 193.726 202.261 195.62 202.936C197.119 203.471 198.907 203.374 200.466 203.657C201.903 203.918 203.221 204.773 204.667 204.995C210.198 205.844 214.503 208.573 217.322 213.358C218.295 215.01 219.382 216.364 220.209 218.221C220.805 219.562 221.713 221.338 222.76 223.548C223.917 225.989 224.224 226.514 225.007 228.163Z" fill="#27AE60"/>
<path d="M69.8945 90.0012C69.8945 85.5044 72.5157 76.613 72.5157 71.9609L46.9536 100.121L61.2893 203.631H73.606C72.5121 201.993 71.8632 201.493 71.7502 199.462C71.6642 197.916 71.3705 195.075 70.5904 193.673C69.8644 192.368 69.9692 189.374 69.8945 187.883C69.7401 184.801 68.5027 181.771 68.5027 178.645C68.5027 163.64 68.9666 148.616 68.9666 133.666C68.9666 127.681 69.8945 121.638 69.8945 115.628C69.8945 110.478 67.923 105.453 69.4306 100.561C70.6176 96.71 69.8945 94.0348 69.8945 90.0012Z" fill="#27AE60" stroke="#27AE60" stroke-width="3" stroke-linecap="round" stroke-linejoin="round"/>
<path d="M78.0578 114.329C75.7998 113.828 72.8536 114.329 70.5445 114.329C70.5445 116.799 70.3302 119.928 69.8896 122.347C69.2903 125.638 69.4829 128.862 69.529 132.178C69.5538 133.958 69.559 135.727 69.6347 137.503C69.6407 137.643 69.5478 139.019 69.6658 139.054C69.7482 139.079 70.2736 138.777 70.362 138.744C70.8178 138.574 71.2584 138.471 71.655 138.186C72.3261 137.702 73.2775 137.36 73.8369 136.758C74.2333 136.332 74.7368 136.125 75.1237 135.666C75.6087 135.09 76.2716 134.622 76.8021 134.077C77.8401 133.011 78.5522 131.719 79.3135 130.453C79.9754 129.351 80.7397 128.025 81.1659 126.816C81.6933 125.32 82.2849 123.896 82.2849 122.298C82.2849 121.24 82.2251 120.232 82.0362 119.195C81.6079 116.843 80.5692 114.886 78.0578 114.329Z" fill="#00ACDC" stroke="#00ACDC" stroke-width="3" stroke-linecap="round"/>
<path d="M75.8812 183.104C73.6336 183.054 72.4661 184.653 70.479 185.508C70.1034 185.669 69.8244 186.101 70.1039 186.828C70.2621 187.238 70.4965 188.144 70.5446 188.588C70.6374 189.445 70.8225 190.015 70.9827 190.861C71.5898 194.07 71.374 197.512 72.6611 200.555C73.0545 201.486 73.61 202.313 74.0598 203.212C74.3442 203.78 74.706 204.141 75.3217 204.354C75.678 204.477 75.8346 204.358 76.1795 204.192C76.4146 204.079 76.971 204.033 77.1368 203.826C77.4775 203.401 77.9414 203.037 78.2558 202.566C79.5638 200.607 80.5446 198.368 81.4137 196.199C81.9997 194.736 82.0602 193.484 82.0602 191.935C82.0602 190.567 81.2916 189.265 80.8293 188.019C80.4087 186.885 79.5679 185.825 78.7531 184.947C78.0427 184.181 76.9995 183.128 75.8812 183.104Z" fill="#00ACDC"/>
<path d="M70.479 185.508L69.8861 184.13L69.8859 184.13L70.479 185.508ZM75.8812 183.104L75.8479 184.603L75.8812 183.104ZM78.7531 184.947L77.6533 185.967L77.6533 185.967L78.7531 184.947ZM80.8293 188.019L79.423 188.541V188.541L80.8293 188.019ZM81.4137 196.199L80.0213 195.641L81.4137 196.199ZM78.2558 202.566L77.0083 201.733L77.0083 201.733L78.2558 202.566ZM77.1368 203.826L75.9663 202.888L75.9663 202.888L77.1368 203.826ZM76.1795 204.192L75.5305 202.84L75.5305 202.84L76.1795 204.192ZM75.3217 204.354L75.8116 202.936L75.8116 202.936L75.3217 204.354ZM74.0598 203.212L75.401 202.54H75.401L74.0598 203.212ZM72.6611 200.555L71.2796 201.14L71.2796 201.14L72.6611 200.555ZM70.9827 190.861L69.5089 191.14H69.5089L70.9827 190.861ZM70.5446 188.588L69.0533 188.749H69.0533L70.5446 188.588ZM70.1039 186.828L68.7039 187.366L68.7041 187.367L70.1039 186.828ZM71.072 186.885C72.1905 186.404 73.2303 185.633 73.8629 185.247C74.5725 184.815 75.1345 184.587 75.8479 184.603L75.9144 181.604C74.3803 181.57 73.2347 182.117 72.302 182.685C71.2921 183.301 70.7547 183.756 69.8861 184.13L71.072 186.885ZM75.8479 184.603C75.9579 184.606 76.1953 184.67 76.5782 184.953C76.9462 185.226 77.3036 185.59 77.6533 185.967L79.8529 183.927C79.4922 183.538 78.9729 182.993 78.3621 182.541C77.7662 182.101 76.9228 181.626 75.9144 181.604L75.8479 184.603ZM77.6533 185.967C78.4358 186.811 79.1085 187.693 79.423 188.541L82.2357 187.497C81.7089 186.077 80.7 184.84 79.8529 183.927L77.6533 185.967ZM79.423 188.541C79.5538 188.893 79.7034 189.242 79.8387 189.557C79.979 189.883 80.1054 190.176 80.2174 190.468C80.4431 191.057 80.5602 191.523 80.5602 191.935H83.5602C83.5602 190.979 83.293 190.11 83.0188 189.395C82.8809 189.035 82.7285 188.683 82.5946 188.372C82.4559 188.049 82.336 187.768 82.2357 187.497L79.423 188.541ZM80.5602 191.935C80.5602 193.442 80.4963 194.455 80.0213 195.641L82.8061 196.757C83.5031 195.017 83.5602 193.526 83.5602 191.935H80.5602ZM80.0213 195.641C79.1586 197.794 78.2249 199.911 77.0083 201.733L79.5032 203.399C80.9028 201.303 81.9307 198.941 82.8061 196.757L80.0213 195.641ZM77.0083 201.733C76.9339 201.845 76.8242 201.969 76.6321 202.166C76.4699 202.333 76.1954 202.602 75.9663 202.888L78.3074 204.764C78.4189 204.625 78.5467 204.5 78.7803 204.26C78.9838 204.051 79.2633 203.759 79.5032 203.399L77.0083 201.733ZM75.9663 202.888C76.063 202.767 76.1594 202.693 76.2185 202.653C76.2784 202.613 76.324 202.592 76.3407 202.584C76.3675 202.572 76.3628 202.577 76.2897 202.597C76.2575 202.606 76.2219 202.615 76.1748 202.627C76.1323 202.638 76.0742 202.652 76.018 202.667C75.9612 202.682 75.8896 202.702 75.814 202.727C75.7411 202.751 75.6399 202.787 75.5305 202.84L76.8286 205.544C76.7491 205.583 76.7073 205.588 76.792 205.566C76.8236 205.557 76.8578 205.549 76.9092 205.536C76.9561 205.524 77.0162 205.509 77.0786 205.492C77.1947 205.46 77.375 205.407 77.5601 205.325C77.724 205.252 78.0456 205.091 78.3074 204.764L75.9663 202.888ZM75.5305 202.84C75.4769 202.866 75.4277 202.89 75.3913 202.908C75.3513 202.928 75.3282 202.939 75.3089 202.948C75.2678 202.968 75.2955 202.952 75.3554 202.935C75.4295 202.915 75.5268 202.9 75.6339 202.905C75.734 202.911 75.7982 202.931 75.8116 202.936L74.8317 205.771C75.2572 205.918 75.6972 205.953 76.1544 205.827C76.3411 205.775 76.4948 205.706 76.5913 205.661C76.6407 205.637 76.6892 205.613 76.7252 205.595C76.7648 205.576 76.796 205.56 76.8286 205.544L75.5305 202.84ZM75.8116 202.936C75.6742 202.888 75.617 202.844 75.5855 202.815C75.5487 202.781 75.4861 202.71 75.401 202.54L72.7186 203.883C73.1512 204.747 73.792 205.412 74.8317 205.771L75.8116 202.936ZM75.401 202.54C75.1553 202.049 74.8758 201.569 74.6476 201.162C74.4081 200.735 74.2052 200.355 74.0426 199.971L71.2796 201.14C71.5104 201.685 71.782 202.185 72.031 202.629C72.2913 203.093 72.5144 203.476 72.7186 203.883L75.401 202.54ZM74.0426 199.971C73.486 198.655 73.2364 197.209 73.0577 195.604C72.8868 194.069 72.774 192.26 72.4566 190.583L69.5089 191.14C69.7985 192.671 69.8814 194.188 70.0761 195.936C70.263 197.615 70.5491 199.412 71.2796 201.14L74.0426 199.971ZM72.4566 190.583C72.2564 189.525 72.1224 189.225 72.0359 188.426L69.0533 188.749C69.1524 189.664 69.3887 190.505 69.5089 191.14L72.4566 190.583ZM72.0359 188.426C71.9717 187.833 71.7008 186.8 71.5036 186.288L68.7041 187.367C68.8233 187.676 69.0214 188.455 69.0533 188.749L72.0359 188.426ZM71.5038 186.289C71.459 186.172 71.5291 186.272 71.451 186.481C71.3715 186.694 71.2092 186.826 71.0722 186.885L69.8859 184.13C69.3732 184.351 68.8837 184.78 68.6406 185.431C68.3989 186.078 68.4693 186.757 68.7039 187.366L71.5038 186.289Z" fill="#00ACDC"/>
<path d="M123.486 196.373C122.522 197.335 121.288 198.483 119.906 198.708C120.728 198.708 122.5 198.185 123.35 198.185H127.042C128.349 198.185 129.656 198.632 130.958 198.632C131.6 198.632 132.247 198.841 132.885 198.855C133.548 198.87 134.212 198.855 134.875 198.855H139.369C140.38 198.855 141.401 198.757 142.409 198.656C143.306 198.567 144.233 198.364 145.119 198.303C146.621 198.199 148.118 198.304 149.588 198.576C150.087 198.668 150.451 198.828 150.919 199.01C151.172 199.109 151.221 199.072 151.124 198.855C150.974 198.519 150.922 198.103 150.707 197.794C150.393 197.341 150.248 196.897 149.812 196.559C149.411 196.247 149.032 195.74 148.724 195.342C147.611 193.902 146.547 192.075 144.97 191.06C143.729 190.262 142.526 189.65 141.091 189.273C139.664 188.898 138.439 189.172 137 189.248C136.146 189.293 135.216 189.723 134.427 190.03C133.637 190.337 132.79 190.516 132.052 190.948C130.471 191.875 128.834 192.707 127.291 193.716C126.003 194.558 124.584 195.277 123.486 196.373Z" fill="#00ACDC"/>
<path d="M119.906 198.708L119.664 197.227C118.893 197.353 118.348 198.05 118.411 198.829C118.474 199.608 119.124 200.208 119.906 200.208V198.708ZM123.486 196.373L124.546 197.434H124.546L123.486 196.373ZM127.291 193.716L126.47 192.461L126.47 192.461L127.291 193.716ZM132.052 190.948L131.294 189.654V189.654L132.052 190.948ZM134.427 190.03L134.97 191.428L134.427 190.03ZM137 189.248L136.922 187.75L137 189.248ZM141.091 189.273L141.472 187.822V187.822L141.091 189.273ZM144.97 191.06L144.158 192.322L144.158 192.322L144.97 191.06ZM148.724 195.342L147.537 196.259L147.537 196.259L148.724 195.342ZM149.812 196.559L150.732 195.374V195.374L149.812 196.559ZM150.707 197.794L151.94 196.939L151.94 196.939L150.707 197.794ZM151.124 198.855L152.494 198.245L151.124 198.855ZM150.919 199.01L151.465 197.613L151.465 197.613L150.919 199.01ZM149.588 198.576L149.316 200.051L149.316 200.051L149.588 198.576ZM145.119 198.303L145.222 199.799L145.119 198.303ZM142.409 198.656L142.558 200.149L142.558 200.149L142.409 198.656ZM132.885 198.855L132.919 197.355H132.919L132.885 198.855ZM120.147 200.188C121.158 200.024 122.032 199.539 122.732 199.032C123.437 198.522 124.057 197.922 124.546 197.434L122.426 195.311C121.952 195.785 121.473 196.24 120.974 196.601C120.471 196.965 120.036 197.167 119.664 197.227L120.147 200.188ZM124.546 197.434C125.498 196.484 126.633 195.939 128.112 194.972L126.47 192.461C125.374 193.178 123.67 194.07 122.426 195.311L124.546 197.434ZM128.112 194.972C129.624 193.982 131.115 193.236 132.811 192.243L131.294 189.654C129.827 190.514 128.043 191.432 126.47 192.461L128.112 194.972ZM132.811 192.243C133.048 192.103 133.331 191.989 133.704 191.862C134.027 191.752 134.54 191.595 134.97 191.428L133.884 188.632C133.524 188.771 133.219 188.858 132.736 189.022C132.304 189.169 131.795 189.361 131.294 189.654L132.811 192.243ZM134.97 191.428C135.434 191.248 135.774 191.099 136.18 190.958C136.566 190.825 136.858 190.757 137.079 190.746L136.922 187.75C136.289 187.783 135.689 187.954 135.199 188.123C134.729 188.286 134.209 188.505 133.884 188.632L134.97 191.428ZM137.079 190.746C138.807 190.655 139.584 190.428 140.71 190.723L141.472 187.822C139.744 187.368 138.071 187.69 136.922 187.75L137.079 190.746ZM140.71 190.723C141.944 191.048 143 191.577 144.158 192.322L145.781 189.799C144.457 188.947 143.107 188.252 141.472 187.822L140.71 190.723ZM144.158 192.322C144.742 192.697 145.281 193.257 145.844 193.971C146.122 194.324 146.392 194.695 146.673 195.085C146.948 195.467 147.24 195.875 147.537 196.259L149.911 194.425C149.652 194.089 149.394 193.729 149.107 193.331C148.826 192.942 148.523 192.523 148.199 192.113C147.557 191.299 146.775 190.438 145.781 189.799L144.158 192.322ZM147.537 196.259C147.795 196.592 148.304 197.287 148.892 197.743L150.732 195.374C150.517 195.207 150.269 194.888 149.911 194.425L147.537 196.259ZM148.892 197.743C148.912 197.758 148.946 197.787 149.03 197.924C149.082 198.006 149.121 198.077 149.201 198.214C149.272 198.335 149.363 198.487 149.475 198.648L151.94 196.939C151.797 196.733 151.807 196.708 151.58 196.343C151.405 196.059 151.149 195.697 150.732 195.374L148.892 197.743ZM149.475 198.648C149.446 198.607 149.458 198.604 149.51 198.768C149.522 198.805 149.534 198.843 149.549 198.892C149.563 198.938 149.58 198.993 149.598 199.05C149.634 199.163 149.684 199.31 149.754 199.465L152.494 198.245C152.465 198.178 152.457 198.137 152.37 197.86C152.305 197.655 152.184 197.29 151.94 196.939L149.475 198.648ZM149.754 199.465C149.753 199.465 149.752 199.46 149.749 199.453C149.746 199.446 149.741 199.433 149.735 199.416C149.725 199.388 149.702 199.317 149.686 199.217C149.669 199.104 149.574 198.366 150.247 197.856C150.534 197.638 150.826 197.581 150.993 197.567C151.159 197.553 151.286 197.573 151.341 197.583C151.447 197.602 151.504 197.628 151.465 197.613L150.373 200.407C150.46 200.442 150.619 200.5 150.802 200.534C150.881 200.548 151.493 200.675 152.059 200.247C152.763 199.712 152.678 198.931 152.65 198.752C152.613 198.516 152.53 198.325 152.494 198.245L149.754 199.465ZM151.465 197.613C151.055 197.453 150.534 197.225 149.861 197.101L149.316 200.051C149.641 200.111 149.848 200.202 150.373 200.407L151.465 197.613ZM149.861 197.101C148.279 196.808 146.656 196.693 145.016 196.806L145.222 199.799C146.586 199.705 147.956 199.799 149.316 200.051L149.861 197.101ZM145.016 196.806C144.503 196.841 143.994 196.917 143.541 196.986C143.068 197.059 142.659 197.124 142.26 197.164L142.558 200.149C143.055 200.099 143.559 200.018 143.995 199.952C144.451 199.882 144.848 199.825 145.222 199.799L145.016 196.806ZM142.26 197.164C141.245 197.265 140.294 197.355 139.369 197.355V200.355C140.465 200.355 141.558 200.249 142.558 200.149L142.26 197.164ZM139.369 197.355H134.875V200.355H139.369V197.355ZM134.875 197.355C134.164 197.355 133.562 197.37 132.919 197.355L132.851 200.355C133.533 200.37 134.26 200.355 134.875 200.355V197.355ZM132.919 197.355C132.729 197.351 132.521 197.317 132.171 197.259C131.864 197.207 131.423 197.132 130.958 197.132V200.132C131.135 200.132 131.338 200.161 131.674 200.217C131.968 200.266 132.403 200.344 132.851 200.355L132.919 197.355ZM130.958 197.132C130.456 197.132 129.931 197.045 129.255 196.93C128.625 196.822 127.845 196.685 127.042 196.685V199.685C127.547 199.685 128.074 199.771 128.749 199.887C129.379 199.994 130.158 200.132 130.958 200.132V197.132ZM127.042 196.685H123.35V199.685H127.042V196.685ZM123.35 196.685C122.739 196.685 121.905 196.859 121.322 196.976C120.595 197.121 120.13 197.208 119.906 197.208V200.208C120.504 200.208 121.336 200.033 121.913 199.917C122.634 199.772 123.111 199.685 123.35 199.685V196.685Z" fill="#00ACDC"/>
<path d="M48.3162 166.172C47.2997 161.479 45.8639 156.462 45.8639 151.627L41.4566 196.948L40.5752 218.948L41.0159 241.388C43.5687 240.751 46.8718 240.047 48.7734 238.148C49.9373 236.986 50.652 236.002 51.4568 234.596C51.9286 233.772 52.1714 232.434 52.7289 231.719C54.299 229.703 55.1343 226.614 57.718 225.468C58.9273 224.931 59.8975 223.324 61.2959 223.324C62.4776 223.324 63.4065 223.416 64.5159 223.662C67.4802 224.319 67.9642 227.113 68.6305 229.774C69.5194 233.324 71.6348 235.284 75.0905 236.362C78.5582 237.444 81.2235 237.97 84.9097 237.97C85.9663 237.97 87.9671 238.342 88.8652 237.771C89.7955 237.18 93.6755 236.842 93.6755 235.628C93.6755 230.497 89.9237 228.323 86.321 225.348C82.927 222.546 81.005 219.501 78.6485 215.902C76.4909 212.608 74.5329 211.707 70.7772 210.743C67.195 209.823 62.7406 210.465 59.0498 210.465C53.8506 210.465 54.0624 204.932 53.524 200.9C52.7735 195.28 52.3148 189.648 51.3772 184.032C50.3818 178.069 49.5922 172.064 48.3162 166.172Z" fill="#00ACDC"/>
<path d="M45.8639 151.627L47.3639 151.627C47.3639 150.827 46.7358 150.167 45.9366 150.129C45.1374 150.09 44.4484 150.685 44.371 151.482L45.8639 151.627ZM48.3162 166.172L49.7822 165.855L48.3162 166.172ZM51.3772 184.032L49.8977 184.279L51.3772 184.032ZM53.524 200.9L55.0108 200.701L53.524 200.9ZM70.7772 210.743L70.4042 212.196L70.7772 210.743ZM78.6485 215.902L77.3936 216.724H77.3936L78.6485 215.902ZM86.321 225.348L85.366 226.505L85.366 226.505L86.321 225.348ZM88.8652 237.771L88.0609 236.505L88.0609 236.505L88.8652 237.771ZM75.0905 236.362L75.5372 234.93H75.5372L75.0905 236.362ZM68.6305 229.774L70.0856 229.409L68.6305 229.774ZM64.5159 223.662L64.191 225.126H64.191L64.5159 223.662ZM57.718 225.468L58.3264 226.839H58.3264L57.718 225.468ZM52.7289 231.719L53.9122 232.64L52.7289 231.719ZM51.4568 234.596L52.7586 235.341H52.7586L51.4568 234.596ZM48.7734 238.148L49.8332 239.21H49.8332L48.7734 238.148ZM41.0159 241.388L39.5162 241.418C39.5252 241.874 39.7416 242.302 40.1042 242.579C40.4668 242.857 40.9361 242.954 41.3792 242.844L41.0159 241.388ZM41.4566 196.948L39.9637 196.802L39.9596 196.845L39.9578 196.888L41.4566 196.948ZM40.5752 218.948L39.0764 218.888L39.0746 218.933L39.0755 218.977L40.5752 218.948ZM44.3639 151.627C44.3639 156.673 45.8652 161.941 46.8502 166.49L49.7822 165.855C48.7343 161.016 47.3639 156.25 47.3639 151.627L44.3639 151.627ZM46.8502 166.49C48.1163 172.336 48.8906 178.246 49.8977 184.279L52.8568 183.785C51.873 177.892 51.0681 171.792 49.7822 165.855L46.8502 166.49ZM49.8977 184.279C50.833 189.882 51.2706 195.359 52.0372 201.099L55.0108 200.701C54.2763 195.202 53.7966 189.415 52.8568 183.785L49.8977 184.279ZM52.0372 201.099C52.1012 201.578 52.1547 202.084 52.2108 202.624C52.2662 203.156 52.3242 203.721 52.3952 204.283C52.5362 205.4 52.7382 206.596 53.1242 207.692C53.512 208.794 54.1176 209.889 55.1257 210.704C56.1559 211.537 57.4674 211.965 59.0498 211.965V208.965C58.0326 208.965 57.4208 208.702 57.0116 208.371C56.5804 208.022 56.2304 207.482 55.954 206.696C55.6757 205.906 55.5048 204.963 55.3716 203.908C55.3055 203.384 55.2511 202.855 55.1947 202.313C55.139 201.779 55.0814 201.23 55.0108 200.701L52.0372 201.099ZM59.0498 211.965C60.868 211.965 63.1317 211.801 64.9879 211.759C66.9762 211.714 68.818 211.789 70.4042 212.196L71.1502 209.29C69.1542 208.778 66.9776 208.713 64.9205 208.76C62.7312 208.809 60.9223 208.965 59.0498 208.965V211.965ZM70.4042 212.196C72.2567 212.671 73.4995 213.093 74.5249 213.726C75.5187 214.338 76.4006 215.208 77.3936 216.724L79.9033 215.081C78.7388 213.303 77.5629 212.074 76.0994 211.172C74.6674 210.289 73.0533 209.779 71.1502 209.29L70.4042 212.196ZM77.3936 216.724C79.7286 220.29 81.7677 223.534 85.366 226.505L87.276 224.192C84.0864 221.558 82.2813 218.712 79.9033 215.081L77.3936 216.724ZM85.366 226.505C87.299 228.101 88.9429 229.235 90.2298 230.678C91.4226 232.015 92.1755 233.499 92.1755 235.628H95.1755C95.1755 232.626 94.0525 230.457 92.4688 228.681C90.979 227.011 88.9457 225.57 87.276 224.192L85.366 226.505ZM92.1755 235.628C92.1755 235.044 92.633 234.909 92.3223 235.083C92.1061 235.204 91.7354 235.34 91.2074 235.491C90.6546 235.649 90.1987 235.753 89.6176 235.91C89.1711 236.031 88.5207 236.213 88.0609 236.505L89.6696 239.037C89.6396 239.056 89.6733 239.031 89.8338 238.975C89.9783 238.925 90.1658 238.869 90.401 238.806C90.809 238.695 91.4975 238.528 92.0311 238.376C92.5893 238.216 93.2468 238.003 93.7871 237.701C94.2329 237.451 95.1755 236.819 95.1755 235.628H92.1755ZM88.0609 236.505C88.094 236.484 88.0411 236.526 87.8129 236.557C87.5994 236.586 87.3249 236.595 86.9906 236.585C86.6585 236.575 86.3167 236.55 85.9582 236.523C85.6231 236.498 85.2405 236.47 84.9097 236.47V239.47C85.1072 239.47 85.371 239.488 85.7362 239.515C86.0782 239.54 86.4908 239.572 86.9031 239.584C87.3134 239.596 87.7735 239.59 88.2209 239.529C88.6534 239.47 89.1874 239.344 89.6696 239.037L88.0609 236.505ZM84.9097 236.47C81.4092 236.47 78.8972 235.979 75.5372 234.93L74.6437 237.794C78.2193 238.91 81.0377 239.47 84.9097 239.47V236.47ZM75.5372 234.93C73.9716 234.442 72.813 233.786 71.9569 232.933C71.1086 232.087 70.4752 230.965 70.0856 229.409L67.1754 230.138C67.6747 232.132 68.5434 233.766 69.8389 235.057C71.1267 236.341 72.7537 237.204 74.6438 237.794L75.5372 234.93ZM70.0856 229.409C69.7782 228.182 69.4445 226.589 68.7677 225.278C68.0322 223.854 66.8422 222.641 64.8408 222.197L64.191 225.126C65.154 225.34 65.688 225.853 66.1021 226.655C66.575 227.57 66.8164 228.705 67.1754 230.138L70.0856 229.409ZM64.8408 222.197C63.6128 221.925 62.574 221.824 61.2959 221.824V224.824C62.3812 224.824 63.2002 224.906 64.191 225.126L64.8408 222.197ZM61.2959 221.824C60.0179 221.824 59.0594 222.561 58.4818 223.037C58.0916 223.359 57.9615 223.489 57.654 223.735C57.4081 223.931 57.2381 224.039 57.1096 224.096L58.3264 226.839C58.8025 226.627 59.2073 226.334 59.5271 226.078C59.7853 225.872 60.2119 225.499 60.3902 225.352C60.9496 224.891 61.1755 224.824 61.2959 224.824V221.824ZM57.1096 224.096C55.4009 224.855 54.3475 226.228 53.5705 227.474C53.1876 228.088 52.8227 228.756 52.5068 229.306C52.1738 229.885 51.8702 230.38 51.5456 230.797L53.9122 232.64C54.3726 232.049 54.7622 231.402 55.1081 230.8C55.4711 230.168 55.771 229.614 56.1161 229.061C56.7953 227.972 57.4513 227.227 58.3264 226.839L57.1096 224.096ZM51.5456 230.797C51.0966 231.373 50.8268 232.115 50.6491 232.609C50.4314 233.215 50.3073 233.585 50.1549 233.851L52.7586 235.341C53.0781 234.783 53.3113 234.072 53.4723 233.624C53.6734 233.064 53.8037 232.78 53.9122 232.64L51.5456 230.797ZM50.1549 233.851C49.4059 235.16 48.7692 236.033 47.7136 237.087L49.8332 239.21C51.1054 237.94 51.8981 236.845 52.7586 235.341L50.1549 233.851ZM47.7136 237.087C46.9911 237.808 45.9306 238.366 44.635 238.828C43.3406 239.29 41.9712 239.604 40.6527 239.933L41.3792 242.844C42.6134 242.536 44.172 242.179 45.6427 241.654C47.1122 241.13 48.654 240.387 49.8332 239.21L47.7136 237.087ZM44.371 151.482L39.9637 196.802L42.9496 197.093L47.3569 151.772L44.371 151.482ZM39.9578 196.888L39.0764 218.888L42.074 219.008L42.9554 197.008L39.9578 196.888ZM39.0755 218.977L39.5162 241.418L42.5156 241.359L42.0749 218.918L39.0755 218.977Z" fill="#00ACDC"/>
<path d="M47.6805 269.896C45.4527 270.3 43.3275 271.181 41.0813 271.662C40.7658 276.238 41.2364 285.83 43.6607 290.67C46.746 296.83 57.764 310.031 59.9677 310.471C61.7306 310.823 70.422 311.599 75.4288 312.383C71.6842 304.906 66.6092 297.533 63.264 289.661C60.6573 283.526 57.1367 277.332 52.3714 272.575C51.0038 271.209 49.9175 269.489 47.6805 269.896Z" fill="#00ACDC" stroke="#00ACDC" stroke-width="3" stroke-linecap="round" stroke-linejoin="round"/>
<path d="M216.674 253.25C219.408 254.261 228.324 261.189 228.765 264.709C228.285 275.084 225.925 295.976 220.332 296.551C219.51 296.551 216.683 295.837 215.859 295.837C213.424 295.837 211.37 295.153 209.24 293.971C206.183 292.275 210.991 284.88 211.944 282.978C212.729 281.409 213.381 278.964 212.739 277.183C212.289 275.935 209.931 274.22 208.882 273.412C207.5 272.347 205.903 272.125 204.311 271.547C201.87 270.661 199.169 270.466 196.698 269.602C195.303 269.115 193.403 268.332 191.927 268.332C188.941 268.332 185.812 268.654 182.963 269.602C180.644 270.374 178.45 272.399 177.04 274.325C175.217 276.815 172.016 279.451 169.447 281.192C165.415 283.923 160.715 283.335 156.109 283.335C151.327 283.335 146.842 286.138 143.487 289.487C141.702 291.269 139.818 293.323 137.882 294.904C136.689 295.878 134.919 296.188 134.483 294.229C133.689 290.663 134.869 287.565 137.842 285.676C141.31 283.473 144.77 280.975 148.337 278.77C151.648 276.724 153.176 272.164 156.844 270.833C159.032 270.038 161.086 269.404 163.444 269.404C164.807 269.404 167.396 268.697 168.612 268.054C170.904 266.843 173.206 265.458 175.429 264.224C176.95 263.381 178.31 262.142 179.902 261.347C184.993 258.806 190.211 256.65 195.287 254.044C200.388 251.425 205.042 251.544 210.652 251.544C212.87 251.544 214.682 252.514 216.674 253.25Z" fill="#00ACDC" stroke="#00ACDC" stroke-width="3" stroke-linecap="round" stroke-linejoin="round"/>
<path d="M65.1201 43.418C67.7982 44.5438 69.9812 45.1029 72.8612 45.6639C72.8612 53.2091 77.1972 64.6173 73.589 71.8219C70.5624 77.8652 63.1382 82.2933 58.5037 87.0147C55.3021 90.2763 52.8585 94.0828 49.34 97.0551C46.8228 99.1817 44.6248 99.874 41.8966 101.085C38.3604 102.654 32.5204 101.547 28.6639 101.547C24.5877 101.547 20.5899 100.35 16.8868 98.7065C15.044 97.8888 12.918 97.1784 11.1967 96.1964C9.53167 95.2465 8.4584 94.0317 6.76378 93.0918C2.98683 90.9969 2 88.0772 2 84.0092C2 79.184 2.61849 76.868 4.97736 72.7467C6.24075 70.5394 10.6465 67.0302 13.0162 66.5045C16.7154 65.6838 20.7242 63.4235 24.6279 62.3099C28.4682 61.2145 32.2414 58.1898 34.1555 54.8456C35.8027 51.9677 36.9152 48.4622 38.9193 45.9612C41.0779 43.2673 44.8923 42.6914 48.1491 42.6914C51.2251 42.6914 56.4553 40.7259 59.4631 42.3942C61.0277 43.262 63.4263 42.7061 65.1201 43.418Z" fill="#27AE60" stroke="#27AE60" stroke-width="3" stroke-linecap="round"/>
<path d="M44.5213 50.8105C44.1098 52.6819 42.8894 54.8688 42.8894 56.7835" stroke="#04294F" stroke-width="3" stroke-linecap="round"/>
<path d="M55.3989 52.4385C55.3989 54.8191 56.4869 61.8781 56.4869 59.4974" stroke="#04294F" stroke-width="3" stroke-linecap="round"/>
<path d="M28.0715 75.8358C28.0167 73.5925 25.7998 72.7113 23.7466 72.5974C21.7792 72.4883 21.5979 74.8706 20.7732 76.1056" stroke="#04294F" stroke-width="3" stroke-linecap="round"/>
<path d="M16.4488 76.1045C16.2595 75.6202 15.1505 72.1218 13.8054 73.196C12.7569 74.0333 11.2367 74.4415 10.7715 75.8347" stroke="#04294F" stroke-width="3" stroke-linecap="round"/>
<path d="M15.0964 90.1384C15.4456 90.2829 17.2049 91.422 17.7399 90.888C18.0342 90.5941 17.7945 89.7308 17.5296 89.5986" stroke="white" stroke-width="3" stroke-linecap="round"/>
<path d="M20.5027 89.5987C20.541 89.6211 23.1459 91.4309 23.2062 90.4083C23.2535 89.6054 23.2062 88.7835 23.2062 87.9795" stroke="white" stroke-width="3" stroke-linecap="round"/>
<path d="M25.0981 88.5194C25.7793 88.9175 29.1534 90.7495 29.1534 88.9242C29.1534 88.1233 29.0151 87.8116 28.4925 87.2901C27.812 86.6108 28.0783 87.4368 27.5313 87.7098" stroke="white" stroke-width="3" stroke-linecap="round"/>
<path d="M29.9634 87.7096C31.0198 88.1212 33.8918 89.989 34.0186 87.7096C34.0347 87.4208 34.7745 85.6379 33.8835 85.8356C33.1324 86.0022 32.5502 86.669 31.8558 86.9" stroke="white" stroke-width="3" stroke-linecap="round"/>
<path d="M74.5792 63.8802C74.1657 59.9993 74.2998 56.0603 74.2998 52.1611C75.8948 52.1611 78.1101 52.229 79.4835 53.0823C79.8219 53.2925 80.2628 53.5443 80.5244 53.8371C80.8625 54.2154 80.9394 54.7211 81.2161 55.1293C81.8017 55.9932 82.4475 57.1695 82.753 58.1486C83.3704 60.1274 84.4934 62.5957 83.7031 64.6862C83.0502 66.4134 81.8412 68.2144 80.4616 69.5479C79.3127 70.6582 78.0161 71.797 76.5633 72.5672C75.9522 72.8912 75.3976 73.4689 74.8168 73.853C74.516 74.0519 74.3968 74.3964 74.4255 73.9233C74.4717 73.1634 74.677 72.3867 74.677 71.5949C74.677 69.0178 74.8566 66.4833 74.5792 63.8802Z" fill="#00ACDC" stroke="#00ACDC" stroke-width="3" stroke-linecap="round"/>
<path d="M76.0373 2C77.2433 2 77.1571 2.25801 78.3631 2.25801C81.6708 2.25801 84.0486 6.39572 84.0486 9.48219C84.0486 11.3295 84.5118 13.8626 83.9911 15.617C83.2939 17.9665 82.9685 20.4044 82.2396 22.7695C81.3262 25.7332 80.3732 28.6603 79.5979 31.6708C79.22 33.1379 78.8963 34.6051 78.4924 36.0569C78.1947 37.1268 77.5781 38.2294 77.3438 39.282C76.9106 41.2281 76.1848 44.1678 74.2283 45.1444C73.0066 45.7543 72.9227 45.6031 71.7732 45.6031C70.9652 45.6031 70.178 45.3451 69.433 45.3451C66.9117 45.3451 64.4441 44.7101 61.9529 44.3274C60.5961 44.119 59.055 44.3131 57.6888 44.3131C55.8813 44.3131 53.8445 44.0607 52.0608 44.3704C49.9662 44.7341 47.8938 44.6113 45.8011 44.8434C43.943 45.0496 42.2724 45.3451 40.3741 45.3451C39.5201 45.3451 38.005 45.7239 38.0483 44.5138C38.0869 43.4328 38.7364 41.458 39.3404 40.5003C40.8756 38.0661 42.0303 35.4055 43.6045 32.9608C44.7042 31.2529 46.1368 29.561 47.5527 28.116C50.0992 25.5172 52.3106 22.5411 54.7026 19.8025C59.0255 14.8531 63.3245 9.4062 68.5429 5.35409C69.5988 4.53414 71.1729 3.27742 72.4767 2.97469C73.7117 2.68795 74.7252 2 76.0373 2Z" fill="#57455E" stroke="#57455E" stroke-width="3" stroke-linecap="round"/>
<path d="M75.7791 39.668C68.8576 38.1872 62.9378 37.0879 55.8801 37.0879C50.8761 37.0879 45.4109 37.8199 40.6328 39.41" stroke="#04294F" stroke-width="3" stroke-linecap="round"/>
<path d="M58.7561 320.675C59.2501 318.099 59.5265 315.287 59.5265 312.67C63.5272 314.26 73.182 316.778 81.4169 314.87C81.5628 315.75 81.804 317.112 81.804 318.147C81.804 320.279 81.5685 322.278 81.4169 324.396C81.1228 328.506 80.6894 333.179 77.9332 336.431C76.7618 337.813 74.8546 339.175 73.1997 339.909C71.8791 340.495 70.8041 341.066 69.3068 341.102C66.1281 341.177 62.9172 341.3 59.7072 341.3C57.5605 341.3 54.9062 341.488 52.8503 340.804C50.8064 340.123 48.6683 340.434 46.7676 339.214C44.4353 337.717 46.2067 333.554 47.8625 332.269C50.703 330.063 54.3658 328.445 56.8759 325.843C58.0846 324.589 58.4422 322.311 58.7561 320.675Z" fill="#EB5757"/>
<path d="M59.5265 312.67L60.0805 311.276C59.6185 311.092 59.0955 311.15 58.6841 311.429C58.2728 311.708 58.0265 312.173 58.0265 312.67H59.5265ZM58.7561 320.675L57.2829 320.393V320.393L58.7561 320.675ZM56.8759 325.843L57.9556 326.884L57.9556 326.884L56.8759 325.843ZM47.8625 332.269L46.9425 331.084H46.9425L47.8625 332.269ZM46.7676 339.214L47.5778 337.951L47.5778 337.951L46.7676 339.214ZM52.8503 340.804L52.3767 342.227H52.3767L52.8503 340.804ZM69.3068 341.102L69.3424 342.601L69.3068 341.102ZM73.1997 339.909L72.5913 338.538H72.5913L73.1997 339.909ZM77.9332 336.431L76.7889 335.461L77.9332 336.431ZM81.4169 324.396L82.9131 324.503V324.503L81.4169 324.396ZM81.4169 314.87L82.8967 314.625C82.8289 314.216 82.5951 313.853 82.2507 313.623C81.9063 313.393 81.4819 313.315 81.0783 313.409L81.4169 314.87ZM58.0265 312.67C58.0265 315.188 57.7598 317.906 57.2829 320.393L60.2292 320.958C60.7405 318.292 61.0265 315.385 61.0265 312.67H58.0265ZM57.2829 320.393C57.1178 321.254 56.9667 322.134 56.715 322.971C56.4607 323.817 56.1549 324.429 55.7963 324.801L57.9556 326.884C58.8056 326.003 59.283 324.849 59.5881 323.834C59.8959 322.81 60.0805 321.733 60.2292 320.958L57.2829 320.393ZM55.7963 324.801C54.6741 325.965 53.2618 326.94 51.6894 327.938C50.1664 328.904 48.4372 329.923 46.9425 331.084L48.7825 333.453C50.1283 332.408 51.6508 331.515 53.2968 330.471C54.8935 329.458 56.5676 328.323 57.9556 326.884L55.7963 324.801ZM46.9425 331.084C45.7985 331.972 44.7895 333.65 44.3671 335.287C43.9547 336.885 43.9549 339.191 45.9574 340.476L47.5778 337.951C47.2481 337.74 46.9677 337.216 47.2719 336.037C47.5661 334.897 48.2707 333.851 48.7825 333.453L46.9425 331.084ZM45.9574 340.476C47.1783 341.26 48.4425 341.525 49.5245 341.693C50.6807 341.873 51.5123 341.939 52.3767 342.227L53.324 339.38C52.1444 338.988 50.885 338.869 49.986 338.729C49.0128 338.577 48.2576 338.388 47.5778 337.951L45.9574 340.476ZM52.3767 342.227C53.6082 342.637 54.9547 342.767 56.1959 342.808C57.4088 342.847 58.7221 342.8 59.7072 342.8V339.8C58.5456 339.8 57.4584 339.847 56.2935 339.809C55.1569 339.772 54.1484 339.655 53.324 339.38L52.3767 342.227ZM59.7072 342.8C62.9408 342.8 66.1931 342.676 69.3424 342.601L69.2711 339.602C66.0631 339.678 62.8936 339.8 59.7072 339.8V342.8ZM69.3424 342.601C71.2082 342.557 72.5984 341.817 73.8081 341.28L72.5913 338.538C71.1598 339.173 70.4001 339.575 69.2711 339.602L69.3424 342.601ZM73.8081 341.28C75.6448 340.465 77.7433 338.975 79.0775 337.401L76.7889 335.461C75.7802 336.652 74.0645 337.885 72.5913 338.538L73.8081 341.28ZM79.0775 337.401C82.2011 333.716 82.6254 328.524 82.9131 324.503L79.9207 324.289C79.6203 328.489 79.1777 332.643 76.7889 335.461L79.0775 337.401ZM82.9131 324.503C83.0584 322.472 83.304 320.351 83.304 318.147H80.304C80.304 320.208 80.0785 322.083 79.9207 324.289L82.9131 324.503ZM83.304 318.147C83.304 316.958 83.0333 315.449 82.8967 314.625L79.9371 315.115C80.0922 316.051 80.304 317.266 80.304 318.147H83.304ZM58.9725 314.064C63.0979 315.703 73.0913 318.339 81.7554 316.331L81.0783 313.409C73.2726 315.217 63.9565 312.816 60.0805 311.276L58.9725 314.064Z" fill="#EB5757"/>
<path d="M87.2921 329.389C89.0434 327.543 88.6142 324.756 88.6142 322.419C91.9995 321.804 96.447 322.695 99.9637 322.617C102.343 322.565 104.731 322.419 107.13 322.419C108.593 322.419 108.26 323.62 108.524 324.804C109.055 327.191 108.878 329.866 108.878 332.312C108.878 334.666 108.742 336.973 108.679 339.312C108.568 343.404 102.46 344.456 99.3886 345.164C97.6253 345.57 95.8989 346.365 94.1022 346.621C92.6368 346.83 91.0482 346.665 89.5679 346.665C87.8677 346.665 86.3279 346.556 84.7459 345.915C83.1023 345.248 81.3436 345.157 79.7692 344.281C78.9061 343.8 78.3014 343.53 77.6236 342.889C77.0264 342.324 76.0932 341.72 75.6329 341.056C74.8081 339.867 75.8844 337.87 76.4956 336.861C77.1112 335.844 77.5071 334.545 78.619 333.99C79.8889 333.356 81.4293 333.253 82.7995 332.753C83.7908 332.392 84.7546 331.765 85.5864 331.119C86.3704 330.51 86.6124 330.105 87.2921 329.389Z" fill="#FFB400"/>
<path d="M88.6142 322.419L88.3463 320.943C87.6329 321.072 87.1142 321.694 87.1142 322.419H88.6142ZM87.2921 329.389L88.3802 330.422L88.3802 330.422L87.2921 329.389ZM85.5864 331.119L86.5064 332.304L85.5864 331.119ZM82.7995 332.753L83.3135 334.162H83.3135L82.7995 332.753ZM78.619 333.99L77.949 332.648L77.949 332.648L78.619 333.99ZM76.4956 336.861L75.2125 336.084H75.2125L76.4956 336.861ZM75.6329 341.056L74.4003 341.911L74.4003 341.911L75.6329 341.056ZM77.6236 342.889L76.5929 343.979L76.5929 343.979L77.6236 342.889ZM79.7692 344.281L79.0398 345.591H79.0398L79.7692 344.281ZM84.7459 345.915L85.3097 344.525L85.3097 344.525L84.7459 345.915ZM94.1022 346.621L93.8904 345.136H93.8904L94.1022 346.621ZM99.3886 345.164L99.0519 343.702L99.3886 345.164ZM108.679 339.312L107.179 339.271L108.679 339.312ZM108.524 324.804L107.06 325.129L107.06 325.129L108.524 324.804ZM99.9637 322.617L99.997 324.117L99.9637 322.617ZM87.1142 322.419C87.1142 323.771 87.2203 324.813 87.1161 325.952C87.0201 327.001 86.7546 327.776 86.204 328.357L88.3802 330.422C89.5808 329.156 89.9764 327.615 90.1037 326.225C90.2227 324.924 90.1142 323.403 90.1142 322.419H87.1142ZM86.204 328.357C85.3622 329.244 85.3347 329.416 84.6665 329.934L86.5064 332.304C87.4061 331.605 87.8627 330.967 88.3802 330.422L86.204 328.357ZM84.6665 329.934C83.8906 330.537 83.068 331.059 82.2854 331.344L83.3135 334.162C84.5136 333.725 85.6187 332.993 86.5064 332.304L84.6665 329.934ZM82.2854 331.344C81.7087 331.555 81.1014 331.68 80.3296 331.861C79.6097 332.029 78.7552 332.245 77.949 332.648L79.2889 335.332C79.7526 335.101 80.3033 334.948 81.0136 334.782C81.672 334.628 82.5201 334.452 83.3135 334.162L82.2854 331.344ZM77.949 332.648C77.0238 333.11 76.4641 333.853 76.0873 334.477C75.8994 334.788 75.7347 335.108 75.5977 335.374C75.452 335.656 75.3352 335.881 75.2125 336.084L77.7786 337.638C77.9637 337.332 78.1273 337.014 78.2637 336.749C78.4088 336.468 78.5281 336.238 78.6551 336.028C78.9081 335.609 79.1023 335.425 79.2889 335.332L77.949 332.648ZM75.2125 336.084C74.8929 336.611 74.3928 337.489 74.0943 338.443C73.8167 339.329 73.5756 340.722 74.4003 341.911L76.8656 340.202C76.8654 340.201 76.75 340.001 76.9572 339.339C77.1435 338.744 77.4871 338.119 77.7786 337.638L75.2125 336.084ZM74.4003 341.911C74.7562 342.424 75.245 342.853 75.6165 343.162C76.057 343.529 76.3383 343.738 76.5929 343.979L78.6544 341.8C78.3117 341.475 77.8278 341.1 77.5373 340.858C77.1778 340.558 76.9699 340.352 76.8656 340.202L74.4003 341.911ZM76.5929 343.979C77.4457 344.786 78.2806 345.169 79.0398 345.591L80.4985 342.97C79.5317 342.432 79.1572 342.275 78.6544 341.8L76.5929 343.979ZM79.0398 345.591C80.0071 346.13 81.0011 346.409 81.8593 346.629C82.7656 346.861 83.4805 347.02 84.1822 347.305L85.3097 344.525C84.3677 344.143 83.3814 343.922 82.6038 343.723C81.7782 343.512 81.1057 343.308 80.4985 342.97L79.0398 345.591ZM84.1822 347.305C86.0368 348.057 87.8108 348.165 89.5679 348.165V345.165C87.9245 345.165 86.619 345.056 85.3097 344.525L84.1822 347.305ZM89.5679 348.165C90.3038 348.165 90.9611 348.205 91.8111 348.221C92.6015 348.237 93.4606 348.228 94.314 348.106L93.8904 345.136C93.2784 345.224 92.6105 345.237 91.8702 345.222C91.1894 345.209 90.3122 345.165 89.5679 345.165V348.165ZM94.314 348.106C95.3481 347.959 96.333 347.661 97.2166 347.377C98.1366 347.082 98.9235 346.81 99.7254 346.626L99.0519 343.702C98.0904 343.924 97.1325 344.253 96.2992 344.521C95.4297 344.8 94.6531 345.028 93.8904 345.136L94.314 348.106ZM99.7254 346.626C101.173 346.292 103.662 345.815 105.758 344.876C107.82 343.951 110.098 342.303 110.178 339.352L107.179 339.271C107.148 340.413 106.317 341.337 104.53 342.138C102.776 342.925 100.676 343.328 99.0519 343.702L99.7254 346.626ZM110.178 339.352C110.24 337.082 110.378 334.687 110.378 332.312H107.378C107.378 334.645 107.244 336.864 107.179 339.271L110.178 339.352ZM110.378 332.312C110.378 330.019 110.567 327.077 109.988 324.478L107.06 325.129C107.544 327.305 107.378 329.713 107.378 332.312H110.378ZM109.988 324.478C109.945 324.284 109.924 324.08 109.893 323.778C109.867 323.526 109.828 323.123 109.715 322.742C109.593 322.33 109.348 321.807 108.816 321.416C108.294 321.033 107.69 320.919 107.13 320.919V323.919C107.302 323.919 107.205 323.955 107.04 323.834C106.865 323.705 106.828 323.557 106.838 323.593C106.858 323.66 106.877 323.78 106.909 324.085C106.935 324.342 106.971 324.732 107.06 325.129L109.988 324.478ZM107.13 320.919C104.726 320.919 102.214 321.067 99.9305 321.118L99.997 324.117C102.471 324.062 104.736 323.919 107.13 323.919V320.919ZM99.9305 321.118C98.2629 321.155 96.3941 320.962 94.3429 320.82C92.3677 320.684 90.2418 320.599 88.3463 320.943L88.8821 323.895C90.3719 323.624 92.1624 323.677 94.1364 323.813C96.0345 323.944 98.1478 324.158 99.997 324.117L99.9305 321.118Z" fill="#FFB400"/>
<path d="M61.8967 324.804C61.8967 323.304 61.8486 322.78 61.0561 321.58C60.303 320.439 59.2027 319.679 58.1143 318.886C57.0088 318.08 54.06 317.044 53.2482 318.665C51.1901 322.774 56.9386 323.876 59.5521 324.804C60.2399 325.048 60.9356 325.003 61.6534 325.003C61.9873 325.003 62.1457 325.018 61.6312 325.003C60.1144 324.959 58.8229 324.385 57.4397 323.821C55.1348 322.882 52.2694 321.828 50.0409 323.446C47.8048 325.07 46.0894 328.479 49.3995 329.773C52.0006 330.789 54.2609 329.156 56.2232 327.487C57.1372 326.71 58.5634 325.696 59.1097 324.605" stroke="#04294F" stroke-width="3" stroke-linecap="round"/>
<path d="M88.7711 330.17C88.7711 327.763 88.8341 325.536 86.3823 324.208C85.4737 323.715 85.0801 323.102 83.9934 322.861C83.4882 322.748 82.2424 322.642 82.2018 323.413C82.0904 325.526 83.991 326.744 85.4311 328.028C85.7126 328.279 89.4814 330.279 87.3334 329.927C84.8112 329.514 82.7599 327.586 80.2111 327.586C79.4762 327.586 79.4148 328.34 79.4148 328.933C79.4148 330.134 79.5544 330.915 80.764 331.407C81.6002 331.747 82.2901 332.259 83.1971 332.555C84.0304 332.827 85.5728 332.994 86.4265 332.709C87.3047 332.417 88.1732 331.761 88.572 330.965" stroke="#04294F" stroke-width="3" stroke-linecap="round"/>
<path d="M10.7715 88.2489C13.4946 88.2489 16.2177 88.2489 18.9408 88.2489C21.5556 88.2489 24.7253 87.9934 27.11 86.8995C29.2535 85.9163 31.736 85.1165 34.0179 84.5307C35.5635 84.1339 37.4091 84.0536 38.6131 82.8516" stroke="#04294F" stroke-width="3" stroke-linecap="round"/>
<path d="M159.043 330.645C159.302 328.902 159.571 325.889 159.571 324.11C164.629 324.294 176.254 325.102 179.404 323.229C179.404 323.969 179.404 324.55 178.963 325.87C178.522 328.07 178.396 328.823 178.154 330.557C177.641 334.23 177.22 337.691 176.473 341.311C175.779 344.677 174.986 348.39 171.341 349.603C170.405 349.915 169.36 350.509 168.389 350.63C166.923 350.813 165.252 350.575 163.821 350.884C161.979 351.281 159.464 351.286 157.65 350.884C156.087 350.537 154.429 350.489 152.905 349.956C151.574 349.491 150.564 349.026 150.129 347.615C149.812 346.585 150.085 345.049 150.085 343.983C150.085 339.888 154.005 338.202 156.301 335.337C157.378 333.993 158.776 332.449 159.043 330.645Z" fill="#FFB400" stroke="#FFB400" stroke-width="3" stroke-linecap="round" stroke-linejoin="round"/>
<path d="M197.663 325.003C205.218 326.07 214.082 322.268 217.57 320.233C217.57 326.815 217.264 333.567 216.132 340.064C215.537 343.483 213.993 348.542 210.956 350.641C208.199 352.547 203.541 352.443 200.361 352.872C197.329 353.281 187.938 354.822 185.719 351.79C184.214 349.734 184.691 347.096 186.515 345.275C189.125 342.67 191.532 340.1 193.726 337.127C196.413 333.486 197.663 329.525 197.663 325.003Z" fill="#EB5757" stroke="#EB5757" stroke-width="3" stroke-linecap="round" stroke-linejoin="round"/>
<path d="M157.65 336.133C157.65 335.155 157.756 334.491 157.052 333.748C156.404 333.062 155.796 332.305 155.216 331.561C154.799 331.026 151.917 329.075 151.589 330.479C150.93 333.3 152.404 334.044 154.42 335.338C154.495 335.386 155.4 335.988 155.371 336.088C155.344 336.183 151.884 335.118 151.578 335.04C149.724 334.564 148.819 334.582 148.503 336.629C148.289 338.021 149.494 338.885 150.837 338.915C152.436 338.951 153.554 338.826 155.04 338.219C155.856 337.886 156.345 337.281 157.052 336.928" stroke="#04294F" stroke-width="3" stroke-linecap="round"/>
<path d="M195.075 337.326C195.075 335.403 195.785 332.072 194.279 330.568C193.514 329.805 191.817 329.17 191.248 330.502C190.089 333.218 192.087 335.578 193.239 337.922C193.518 338.49 193.679 339.293 194.124 339.755C194.583 340.232 195.152 340.653 194.345 339.865C193.175 338.723 191.669 337.911 190.341 336.972C189.691 336.512 188.918 335.766 188.063 335.736C185.918 335.659 185.43 338.112 185.763 339.909C186.165 342.079 189.946 342.474 191.691 342.25C192.983 342.084 194.162 341.458 195.274 340.903" stroke="#04294F" stroke-width="3" stroke-linecap="round"/>
<path d="M54.6784 134.907C55.9779 133.898 55.1192 134.467 55.7382 133.762C56.8667 132.313 61.2844 132.087 62.4417 134.109C62.8768 134.869 63.1669 136.801 62.8042 137.661C62.5289 138.314 62.6901 139.037 62.3964 139.697C62.1493 140.252 61.7321 140.609 61.3202 141.02C60.5193 141.819 59.5697 142.883 58.3633 142.954C57.168 143.024 55.3494 142.977 54.3869 142.23C53.8719 141.83 52.8575 141.458 52.8575 140.805C52.8575 139.968 52.7848 139.125 53.0161 138.317C53.5502 136.45 53.1158 136.12 54.6784 134.907Z" fill="#EB5757" stroke="#EB5757" stroke-width="3" stroke-linecap="round"/>
<path d="M63.582 174.404C64.6981 173.165 66.5779 173.009 68.3409 172.747C68.6942 175.123 69.1889 179.586 69.2223 181.988C69.2376 183.086 69.111 183.234 67.5537 183.465C66.2728 183.655 65.3313 183.811 64.2721 183.13C62.5014 181.992 62.5513 179.304 62.6757 177.504C62.7399 176.577 62.8771 175.187 63.582 174.404Z" fill="#EB5757"/>
<path d="M68.3409 172.747L69.8246 172.527C69.7028 171.708 68.9397 171.142 68.1202 171.264L68.3409 172.747ZM63.582 174.404L64.697 175.408L63.582 174.404ZM62.6757 177.504L64.1723 177.608L62.6757 177.504ZM64.2721 183.13L65.0827 181.868L65.0827 181.868L64.2721 183.13ZM69.2223 181.988L70.7223 181.967L70.7223 181.967L69.2223 181.988ZM68.1202 171.264C67.3128 171.383 66.2659 171.505 65.3229 171.762C64.3507 172.028 63.2933 172.483 62.467 173.401L64.697 175.408C64.9868 175.087 65.4273 174.844 66.1148 174.656C66.8315 174.46 67.6059 174.373 68.5615 174.231L68.1202 171.264ZM62.467 173.401C61.8682 174.066 61.582 174.895 61.4274 175.56C61.2683 176.245 61.2121 176.925 61.1792 177.4L64.1723 177.608C64.2036 177.156 64.2481 176.678 64.3498 176.24C64.456 175.783 64.5909 175.526 64.697 175.408L62.467 173.401ZM61.1792 177.4C61.116 178.314 61.0578 179.599 61.2884 180.839C61.5186 182.076 62.0825 183.506 63.4615 184.392L65.0827 181.868C64.691 181.617 64.3945 181.133 64.238 180.292C64.082 179.453 64.111 178.494 64.1723 177.608L61.1792 177.4ZM63.4615 184.392C65.0612 185.42 66.5722 185.127 67.7744 184.948L67.333 181.981C65.9734 182.183 65.6014 182.202 65.0827 181.868L63.4615 184.392ZM67.7744 184.948C68.1654 184.89 68.5453 184.827 68.8722 184.737C69.1917 184.649 69.6172 184.496 69.9847 184.164C70.3963 183.791 70.5798 183.339 70.6586 182.941C70.7267 182.597 70.726 182.238 70.7223 181.967L67.7223 182.008C67.7241 182.134 67.7234 182.222 67.7203 182.288C67.7173 182.354 67.713 182.37 67.7155 182.358C67.7186 182.342 67.7328 182.278 67.7769 182.192C67.8243 182.1 67.8908 182.012 67.9708 181.939C68.0461 181.871 68.109 181.839 68.1296 181.829C68.1473 181.821 68.136 181.828 68.0749 181.845C68.0148 181.861 67.927 181.882 67.7989 181.905C67.6719 181.929 67.5196 181.953 67.333 181.981L67.7744 184.948ZM70.7223 181.967C70.6875 179.466 70.1813 174.926 69.8246 172.527L66.8571 172.967C67.2071 175.321 67.6903 179.707 67.7223 182.008L70.7223 181.967Z" fill="#EB5757"/>
<path d="M45.4146 186.726C44.2405 187.246 43.7677 188.05 43.477 189.372L41.4375 218.689C42.1048 217.356 43.7824 216.625 44.3381 215.182C45.0252 213.399 46.4008 212.122 46.5363 210.093C46.6008 209.127 46.9234 208.218 46.9442 207.242C46.9729 205.897 47.0597 204.481 47.1595 203.137C47.3595 200.441 47.556 197.792 47.556 195.073C47.556 192.905 47.882 190.399 47.4541 188.264C47.1914 186.952 46.9342 186.051 45.4146 186.726Z" fill="#EB5757" stroke="#EB5757" stroke-width="3" stroke-linecap="round" stroke-linejoin="round"/>
<path d="M90.8181 209.268C91.6995 208.828 91.6995 208.828 93.0293 208.305C94.2173 208.305 95.4589 208.102 96.6998 208.102C97.9393 208.102 100.538 208.078 101.186 209.21C103.574 213.382 99.5485 217.924 95.9974 219.91C93.7875 221.145 91.0105 221.369 88.645 220.407L88.6245 220.399C87.9405 220.121 86.7078 219.62 86.7078 218.79V216.652C86.7078 214.669 87.4301 212.26 88.9509 210.85C89.9479 209.926 89.4959 210.148 90.8181 209.268Z" fill="#EB5757"/>
<path d="M93.0293 208.305V206.805C92.8413 206.805 92.6551 206.84 92.4802 206.909L93.0293 208.305ZM90.8181 209.268L90.1481 207.926L90.0646 207.968L89.9869 208.019L90.8181 209.268ZM88.9509 210.85L89.9707 211.95L88.9509 210.85ZM88.6245 220.399L89.1895 219.009L89.1895 219.009L88.6245 220.399ZM88.645 220.407L89.2101 219.018L89.21 219.018L88.645 220.407ZM95.9974 219.91L95.2654 218.6L95.9974 219.91ZM101.186 209.21L99.8842 209.955L99.8842 209.955L101.186 209.21ZM92.4802 206.909C91.1259 207.442 91.0823 207.46 90.1481 207.926L91.488 210.61C92.3167 210.197 92.2731 210.214 93.5783 209.701L92.4802 206.909ZM89.9869 208.019C89.3357 208.453 89.0102 208.685 88.7234 208.961C88.6082 209.071 88.4757 209.214 88.3976 209.295C88.2975 209.399 88.1588 209.539 87.9311 209.75L89.9707 211.95C90.2415 211.699 90.4202 211.52 90.5571 211.378C90.716 211.213 90.74 211.183 90.8017 211.124C90.8687 211.06 90.9782 210.963 91.6492 210.517L89.9869 208.019ZM87.9311 209.75C86.0078 211.533 85.2078 214.404 85.2078 216.652H88.2078C88.2078 214.934 88.8524 212.987 89.9707 211.95L87.9311 209.75ZM85.2078 216.652V218.79H88.2078V216.652H85.2078ZM85.2078 218.79C85.2078 220.003 86.0965 220.727 86.5747 221.047C87.1169 221.411 87.7405 221.659 88.0595 221.788L89.1895 219.009C88.8244 218.861 88.4897 218.719 88.2446 218.555C88.1276 218.477 88.0995 218.437 88.1102 218.451C88.1314 218.479 88.2078 218.601 88.2078 218.79H85.2078ZM88.0594 221.788L88.08 221.797L89.21 219.018L89.1895 219.009L88.0594 221.788ZM88.0798 221.797C90.8866 222.938 94.1401 222.667 96.7294 221.219L95.2654 218.6C93.4348 219.624 91.1344 219.8 89.2101 219.018L88.0798 221.797ZM96.7294 221.219C98.6827 220.127 100.79 218.327 102.102 216.156C103.432 213.956 104.039 211.175 102.488 208.465L99.8842 209.955C100.721 211.417 100.509 212.993 99.5351 214.604C98.5444 216.243 96.8632 217.707 95.2654 218.6L96.7294 221.219ZM102.488 208.465C102.108 207.801 101.508 207.416 100.994 207.188C100.472 206.957 99.9035 206.827 99.392 206.749C98.3729 206.593 97.295 206.602 96.6998 206.602V209.602C97.3442 209.602 98.1855 209.599 98.9378 209.714C99.3119 209.771 99.5923 209.848 99.7783 209.931C99.9721 210.017 99.9401 210.053 99.8842 209.955L102.488 208.465ZM96.6998 206.602C96.0074 206.602 95.3258 206.658 94.7208 206.709C94.0937 206.76 93.55 206.805 93.0293 206.805V209.805C93.6966 209.805 94.3677 209.748 94.9686 209.698C95.5917 209.647 96.1513 209.602 96.6998 209.602V206.602Z" fill="#EB5757"/>
<path d="M54.8963 232.125C56.5837 230.16 57.0758 227.468 59.1786 225.814C59.584 224.6 62.7894 223.492 63.7781 224.479C64.0549 224.755 64.5088 224.647 64.7298 225C64.8851 225.248 65.3272 225.542 65.5454 225.769C66.3047 226.556 67.0693 227.215 67.6413 228.166C68.7666 230.039 67.4273 232.472 66.565 234.07C65.6873 235.698 64.1972 237.197 62.9511 238.549C62.1042 239.468 61.0084 241.024 59.7451 241.445C58.5275 241.85 56.2388 241.214 55.2135 240.563C53.7762 239.649 53.8767 238.702 53.8767 237.102C53.8767 235.477 53.7701 233.437 54.8963 232.125Z" fill="#EB5757" stroke="#EB5757" stroke-width="3" stroke-linecap="round"/>
<path d="M74.8805 279.357C79.5491 276.897 84.6813 278.701 87.3196 283.021C87.9437 283.333 87.7274 284.731 87.7274 285.362C87.7274 285.728 87.6927 286.983 87.4782 287.251C87.2522 287.533 87.4293 287.801 87.2743 288.111C87.1263 288.406 86.8149 288.616 86.7078 288.936C86.4529 289.7 85.4379 290.397 84.8726 290.961C83.8167 292.015 82.1087 292.499 80.7942 293.155C79.583 293.76 76.626 293.711 75.447 292.997C73.1619 291.612 71.21 289.436 71.21 286.64C71.21 285.542 70.97 283.697 71.5159 282.716C72.2602 281.378 73.5146 280.076 74.8805 279.357Z" fill="#EB5757"/>
<path d="M87.3196 283.021L86.0395 283.803C86.1863 284.043 86.3977 284.237 86.6497 284.363L87.3196 283.021ZM74.8805 279.357L74.1813 278.029V278.029L74.8805 279.357ZM71.5159 282.716L72.8266 283.445H72.8266L71.5159 282.716ZM75.447 292.997L74.6694 294.28H74.6694L75.447 292.997ZM80.7942 293.155L80.1242 291.813V291.813L80.7942 293.155ZM84.8726 290.961L83.8128 289.899L84.8726 290.961ZM86.7078 288.936L85.2851 288.461L85.2851 288.461L86.7078 288.936ZM87.2743 288.111L88.6155 288.782L88.6155 288.782L87.2743 288.111ZM87.4782 287.251L88.6488 288.189L88.6488 288.189L87.4782 287.251ZM88.5997 282.239C85.5968 277.322 79.6287 275.159 74.1813 278.029L75.5798 280.684C79.4694 278.634 83.7658 280.08 86.0395 283.803L88.5997 282.239ZM74.1813 278.029C72.5292 278.9 71.0744 280.424 70.2051 281.986L72.8266 283.445C73.446 282.332 74.5 281.253 75.5798 280.684L74.1813 278.029ZM70.2051 281.986C69.7332 282.834 69.6668 283.881 69.6583 284.617C69.6537 285.02 69.6682 285.419 69.6823 285.763C69.697 286.125 69.71 286.405 69.71 286.64H72.71C72.71 286.327 72.693 285.965 72.6798 285.641C72.6659 285.299 72.6545 284.969 72.6582 284.651C72.6662 283.945 72.7528 283.578 72.8266 283.445L70.2051 281.986ZM69.71 286.64C69.71 290.196 72.1832 292.772 74.6694 294.28L76.2245 291.714C74.1407 290.451 72.71 288.675 72.71 286.64H69.71ZM74.6694 294.28C75.6038 294.846 76.9643 295.043 78.0712 295.07C79.1864 295.098 80.5266 294.965 81.4641 294.497L80.1242 291.813C79.8506 291.95 79.1067 292.095 78.1458 292.071C77.1767 292.047 76.4692 291.862 76.2245 291.714L74.6694 294.28ZM81.4641 294.497C81.7483 294.355 82.0644 294.218 82.4258 294.064C82.7746 293.915 83.1723 293.748 83.5604 293.569C84.3276 293.213 85.2136 292.74 85.9324 292.022L83.8128 289.899C83.4757 290.236 82.9797 290.532 82.3003 290.846C81.9651 291.001 81.6233 291.144 81.2492 291.304C80.8876 291.458 80.4973 291.627 80.1242 291.813L81.4641 294.497ZM85.9324 292.022C86.0334 291.922 86.1655 291.804 86.3508 291.642C86.5226 291.491 86.7365 291.305 86.9424 291.108C87.315 290.753 87.8773 290.17 88.1306 289.411L85.2851 288.461C85.2917 288.441 85.2823 288.479 85.2048 288.58C85.1295 288.678 85.0206 288.795 84.8708 288.938C84.7204 289.082 84.5586 289.223 84.3732 289.386C84.2012 289.537 83.9944 289.718 83.8128 289.899L85.9324 292.022ZM88.1306 289.411C88.0833 289.553 88.0093 289.615 88.1197 289.484C88.1517 289.447 88.2442 289.34 88.3208 289.242C88.4058 289.133 88.5175 288.978 88.6155 288.782L85.9331 287.439C85.957 287.391 85.9743 287.373 85.9559 287.396C85.9292 287.431 85.9095 287.452 85.8317 287.544C85.7226 287.673 85.4394 287.999 85.2851 288.461L88.1306 289.411ZM88.6155 288.782C88.7491 288.516 88.8051 288.265 88.8292 288.063C88.8406 287.968 88.8447 287.884 88.8466 287.826C88.8475 287.797 88.848 287.77 88.8484 287.751C88.8488 287.728 88.8489 287.718 88.8492 287.706C88.8504 287.655 88.8528 287.726 88.8271 287.828C88.7953 287.954 88.7348 288.082 88.6488 288.189L86.3077 286.313C86.1086 286.562 85.9855 286.829 85.9185 287.093C85.8576 287.335 85.8522 287.545 85.8501 287.635C85.8442 287.882 85.8291 287.647 85.9331 287.439L88.6155 288.782ZM88.6488 288.189C88.8281 287.965 88.9197 287.735 88.9645 287.609C89.0162 287.463 89.0514 287.319 89.0763 287.199C89.1263 286.958 89.157 286.701 89.1772 286.478C89.2179 286.028 89.2274 285.575 89.2274 285.362H86.2274C86.2274 285.515 86.2196 285.873 86.1893 286.208C86.174 286.379 86.1558 286.508 86.1389 286.59C86.1304 286.631 86.1277 286.632 86.1365 286.608C86.1384 286.602 86.1819 286.47 86.3076 286.313L88.6488 288.189ZM89.2274 285.362C89.2274 285.251 89.237 285.117 89.2498 284.844C89.2608 284.609 89.2715 284.305 89.2556 283.995C89.2403 283.697 89.1973 283.303 89.0555 282.915C88.9115 282.52 88.6092 281.988 87.9895 281.679L86.6497 284.363C86.3421 284.21 86.2468 283.969 86.2377 283.944C86.2309 283.926 86.2508 283.979 86.2595 284.148C86.2676 284.306 86.2632 284.489 86.2531 284.704C86.2449 284.88 86.2274 285.158 86.2274 285.362H89.2274Z" fill="#EB5757"/>
<path d="M130.551 237.667C131.543 237.44 131.235 237.428 132.246 237.428C133.568 237.428 134.816 237.103 135.694 237.372C136.417 237.595 137.168 237.433 137.79 237.915C138.414 238.4 138.673 239.012 139.217 239.555C140.422 240.758 140.144 244.196 139.919 245.765C139.655 247.613 138.077 249.408 136.668 250.492C132.807 253.467 126.079 251.793 123.833 247.495C122.565 245.071 124.9 241.122 126.869 239.77C128 238.994 129.17 237.982 130.551 237.667Z" fill="#EB5757"/>
<path d="M132.246 237.428V238.928H132.246L132.246 237.428ZM130.551 237.667L130.884 239.129L130.551 237.667ZM126.869 239.77L127.718 241.007L126.869 239.77ZM123.833 247.495L125.162 246.8L123.833 247.495ZM136.668 250.492L135.753 249.304L136.668 250.492ZM139.919 245.765L138.435 245.552L139.919 245.765ZM139.217 239.555L138.157 240.617L139.217 239.555ZM137.79 237.915L136.87 239.1V239.1L137.79 237.915ZM135.694 237.372L136.134 235.939V235.939L135.694 237.372ZM132.246 235.928C131.79 235.928 131.461 235.926 131.126 235.986C130.97 236.014 130.821 236.054 130.714 236.082C130.594 236.114 130.443 236.152 130.217 236.204L130.884 239.129C131.154 239.067 131.337 239.02 131.47 238.985C131.616 238.947 131.64 238.942 131.657 238.939C131.669 238.937 131.692 238.928 132.246 238.928V235.928ZM130.217 236.204C129.284 236.417 128.477 236.852 127.806 237.283C127.201 237.672 126.459 238.232 126.02 238.534L127.718 241.007C128.409 240.532 128.818 240.198 129.427 239.808C129.968 239.46 130.437 239.231 130.884 239.129L130.217 236.204ZM126.02 238.534C124.767 239.394 123.533 240.954 122.774 242.603C122.037 244.207 121.544 246.355 122.503 248.19L125.162 246.8C124.854 246.211 124.895 245.172 125.5 243.857C126.084 242.588 127.002 241.498 127.718 241.007L126.02 238.534ZM122.503 248.19C123.87 250.806 126.528 252.519 129.296 253.18C132.065 253.841 135.208 253.51 137.583 251.681L135.753 249.304C134.267 250.449 132.115 250.769 129.993 250.262C127.87 249.755 126.041 248.482 125.162 246.8L122.503 248.19ZM137.583 251.681C138.381 251.067 139.23 250.25 139.928 249.308C140.619 248.375 141.225 247.233 141.404 245.977L138.435 245.552C138.35 246.145 138.034 246.824 137.517 247.522C137.008 248.21 136.364 248.833 135.753 249.304L137.583 251.681ZM141.404 245.977C141.524 245.144 141.661 243.791 141.603 242.457C141.573 241.789 141.493 241.079 141.314 240.42C141.14 239.778 140.839 239.055 140.277 238.494L138.157 240.617C138.198 240.657 138.313 240.815 138.419 241.205C138.52 241.577 138.582 242.05 138.606 242.589C138.653 243.666 138.54 244.816 138.435 245.552L141.404 245.977ZM140.277 238.494C140.102 238.319 139.984 238.148 139.734 237.814C139.505 237.508 139.186 237.101 138.71 236.731L136.87 239.1C137.017 239.215 137.14 239.355 137.333 239.612C137.504 239.841 137.788 240.248 138.157 240.617L140.277 238.494ZM138.71 236.731C138.083 236.244 137.42 236.119 136.979 236.06C136.444 235.988 136.338 236.001 136.134 235.939L135.253 238.806C135.55 238.897 135.826 238.942 136.046 238.971C136.155 238.985 136.262 238.996 136.348 239.006C136.44 239.016 136.513 239.024 136.581 239.033C136.718 239.051 136.788 239.068 136.829 239.082C136.861 239.093 136.868 239.099 136.87 239.1L138.71 236.731ZM136.134 235.939C135.391 235.71 134.595 235.757 134.016 235.804C133.34 235.859 132.826 235.928 132.246 235.928L132.246 238.928C132.988 238.928 133.759 238.835 134.258 238.794C134.852 238.746 135.12 238.765 135.253 238.806L136.134 235.939Z" fill="#EB5757"/>
<path d="M132.59 282.568C133.69 283.118 134.908 284.284 135.648 285.26C136.83 287.029 136.464 289.479 136.464 291.571C136.464 294.171 135.317 296.178 133.507 297.984C132.225 299.264 129.52 299.403 127.809 299.093C126.13 298.788 123.896 298.537 122.552 297.317C120.828 295.752 119.394 294.387 119.992 291.775C120.277 290.529 120.33 289.764 121.272 288.823C122.027 288.069 123.25 286.992 123.617 285.984C123.978 284.994 125.271 283.771 126.043 283.04L126.064 283.021C126.834 282.292 128.983 280.907 130.041 281.494C130.802 281.916 131.783 282.165 132.59 282.568Z" fill="#EB5757" stroke="#EB5757" stroke-width="3" stroke-linecap="round"/>
<path d="M173.475 261.239C175.774 261.945 176.636 263.949 176.636 266.125C176.636 269.628 176.672 272.732 173.328 274.879C171.668 275.944 170.032 275.32 168.388 274.574C166.76 273.834 165.077 272.907 163.789 271.622C160.495 268.333 163.768 262.451 167.006 260.583C169.043 259.408 171.504 260.633 173.475 261.239Z" fill="#EB5757" stroke="#EB5757" stroke-width="3" stroke-linecap="round"/>
<path d="M197.232 219.253C198.835 219.619 199.373 220.16 200.118 221.588C200.118 222.284 201.31 222.571 201.31 223.268V225.406C201.31 226.623 200.983 228.215 200.189 229.183C199.6 229.902 199.234 230.298 198.456 230.902C197.728 231.467 196.222 232.032 195.295 232.113C192.961 232.315 190.735 232.012 188.486 231.513C186.732 231.124 185.97 228.632 186.266 227.08C186.773 224.421 188.776 222.112 190.797 220.474C192.859 218.804 194.777 218.693 197.232 219.253Z" fill="#EB5757" stroke="#EB5757" stroke-width="3" stroke-linecap="round"/>
<path d="M195.703 209.006C193.577 207.356 191.053 206.129 189.981 203.548C189.981 203.548 196.151 203.548 201.44 204.868C206.729 206.188 210.695 208.388 210.695 208.388C210.695 209.721 209.119 211.766 207.723 211.766H204.981C203.983 211.766 203.041 211.396 202.081 211.359C199.952 211.277 197.402 210.326 195.703 209.006Z" fill="#EB5757" stroke="#EB5757" stroke-width="3" stroke-linecap="round" stroke-linejoin="round"/>
<path d="M197.594 282.456C201.462 278.594 206.56 275.285 212.118 275.285C213.577 275.771 213.749 278.305 213.749 279.549C213.749 281.711 213.194 283.317 212.22 285.261C209.994 289.705 204.212 292.666 199.26 292.171C197.947 292.04 196.323 291.639 195.306 290.769C194.688 290.241 194.989 288.825 194.989 288.111C194.989 287.147 194.928 285.575 195.499 284.752C196.133 283.838 196.819 283.23 197.594 282.456Z" fill="#EB5757" stroke="#EB5757" stroke-width="3" stroke-linecap="round"/>
<path d="M266.127 354.436C263.908 352.221 260.093 349.753 257.018 349.2C258.428 355.458 260.14 354.987 251.804 354.987C247.228 354.987 254.595 359.31 260.498 359.31C261.478 360.506 252.138 364.7 251.513 364.908C248.017 366.071 270.544 373.503 270.544 362.979C270.544 358.98 268.905 357.21 266.127 354.436Z" fill="#FFB400"/>
<path d="M257.018 349.2L257.284 347.724C256.789 347.635 256.282 347.8 255.935 348.163C255.587 348.526 255.444 349.039 255.555 349.53L257.018 349.2ZM266.127 354.436L265.067 355.498L266.127 354.436ZM260.498 359.31L261.658 358.359C261.373 358.012 260.947 357.81 260.498 357.81V359.31ZM251.513 364.908L251.039 363.485L251.039 363.485L251.513 364.908ZM256.753 350.677C258.046 350.909 259.593 351.57 261.126 352.483C262.645 353.389 264.054 354.486 265.067 355.498L267.187 353.375C265.982 352.171 264.373 350.926 262.662 349.906C260.963 348.894 259.065 348.044 257.284 347.724L256.753 350.677ZM265.067 355.498C266.478 356.906 267.44 357.911 268.084 359.007C268.689 360.039 269.044 361.213 269.044 362.979H272.044C272.044 360.745 271.579 359.035 270.671 357.489C269.801 356.007 268.554 354.74 267.187 353.375L265.067 355.498ZM251.804 356.487C253.831 356.487 255.371 356.517 256.415 356.461C256.94 356.432 257.458 356.378 257.91 356.246C258.372 356.111 258.938 355.844 259.319 355.265C259.692 354.699 259.716 354.091 259.681 353.66C259.646 353.231 259.533 352.773 259.418 352.349C259.167 351.434 258.825 350.394 258.482 348.87L255.555 349.53C255.917 351.135 256.317 352.383 256.524 353.14C256.636 353.552 256.681 353.776 256.691 353.903C256.701 354.027 256.659 353.849 256.813 353.615C256.975 353.369 257.169 353.337 257.068 353.366C256.957 353.399 256.718 353.44 256.253 353.465C255.317 353.516 253.946 353.487 251.804 353.487V356.487ZM260.498 357.81C257.845 357.81 254.77 356.817 252.932 355.828C252.482 355.585 252.149 355.366 251.933 355.191C251.662 354.97 251.746 354.957 251.821 355.175C251.876 355.335 251.926 355.64 251.779 355.981C251.638 356.307 251.407 356.455 251.32 356.501C251.205 356.561 251.28 356.487 251.804 356.487V353.487C251.185 353.487 250.489 353.549 249.924 353.845C249.612 354.009 249.236 354.301 249.025 354.791C248.806 355.297 248.859 355.788 248.984 356.15C249.198 356.773 249.69 357.233 250.042 357.519C250.45 357.851 250.957 358.171 251.51 358.469C253.687 359.641 257.248 360.81 260.498 360.81V357.81ZM251.987 366.331C252.242 366.246 253.03 365.902 253.951 365.474C254.916 365.025 256.137 364.431 257.314 363.802C258.474 363.183 259.654 362.495 260.499 361.857C260.904 361.551 261.342 361.176 261.642 360.753C261.792 360.541 261.984 360.213 262.048 359.794C262.121 359.313 262.01 358.79 261.658 358.359L259.337 360.261C259.107 359.98 259.038 359.63 259.082 359.341C259.101 359.221 259.135 359.135 259.156 359.088C259.168 359.064 259.177 359.046 259.184 359.035C259.19 359.024 259.195 359.018 259.195 359.018C259.196 359.017 259.186 359.03 259.163 359.056C259.14 359.081 259.107 359.115 259.062 359.157C258.971 359.241 258.849 359.344 258.691 359.463C258.041 359.954 257.031 360.553 255.9 361.157C254.786 361.752 253.617 362.32 252.686 362.754C252.221 362.97 251.819 363.151 251.518 363.282C251.185 363.428 251.039 363.485 251.039 363.485L251.987 366.331ZM269.044 362.979C269.044 364.012 268.773 364.717 268.388 365.223C267.993 365.744 267.391 366.167 266.556 366.478C264.839 367.116 262.422 367.171 259.914 366.839C257.438 366.511 255.084 365.835 253.604 365.199C253.238 365.042 252.945 364.896 252.728 364.769C252.62 364.706 252.539 364.652 252.482 364.61C252.423 364.567 252.404 364.547 252.411 364.554C252.412 364.554 252.48 364.624 252.544 364.765C252.613 364.918 252.691 365.196 252.611 365.535C252.531 365.878 252.334 366.096 252.196 366.207C252.13 366.259 252.074 366.291 252.041 366.307C252.008 366.324 251.988 366.331 251.987 366.331L251.039 363.485C250.715 363.593 249.906 363.929 249.69 364.852C249.479 365.756 250.032 366.407 250.243 366.628C250.753 367.16 251.598 367.602 252.42 367.956C254.179 368.711 256.802 369.453 259.52 369.813C262.208 370.169 265.204 370.181 267.601 369.29C268.823 368.835 269.954 368.122 270.777 367.038C271.61 365.942 272.044 364.577 272.044 362.979H269.044Z" fill="#FFB400"/>
<path d="M280.879 337.901C278.718 337.901 277.083 338.642 275.297 339.83C272.552 341.657 276.977 344.009 278.395 344.653C284.015 347.203 293.069 346.648 295.938 340.382C297.837 336.234 294.688 331.823 291.399 329.634C289.736 328.528 279.669 322.5 278.027 326.189C276.952 328.604 281.832 332.114 283.793 332.114C282.231 332.114 273.175 331.267 275.297 334.87C276.357 336.668 283.015 337.901 280.879 337.901Z" fill="#EB5757" stroke="#EB5757" stroke-width="3" stroke-linecap="round"/>
<path d="M345.055 347.807C350.296 348.461 355.913 347.315 360.19 344.24C363.436 341.907 361.943 333.405 358.657 331.349C355.371 329.294 339.58 324.863 339.58 329.512C339.58 331.34 347.881 334.383 349.211 334.595C346.269 334.595 343.445 334.903 340.446 335.901C337.446 336.899 344.412 338.699 350.299 340.658C351.331 341.001 348.074 341.76 347.554 341.76C346.558 341.76 338.808 342.738 338.492 343.842C337.821 346.186 343.795 347.65 345.055 347.807Z" fill="#FFB400" stroke="#FFB400" stroke-width="3" stroke-linecap="round"/>
<path d="M324.507 364.787C325.61 363.93 328.282 364.082 329.613 364.082C334.177 364.082 320.436 359.789 320.436 357.111C320.436 351.205 361.779 365.525 339.565 375.228C334.744 377.334 329.936 377.29 324.783 376.499C322.763 376.188 319.711 375.44 320.78 373.039C321.39 371.669 324.754 370.145 326.239 370.145C327.201 370.145 332.957 369.484 331.545 369.318C329.457 369.073 327.166 368.148 325.059 367.68C322.421 367.095 322.465 366.372 324.507 364.787Z" fill="#EB5757" stroke="#EB5757" stroke-width="3" stroke-linecap="round"/>
<path d="M80.1209 85.265C77.7355 83.9041 75.3137 85.265 72.7782 85.265C72.7782 87.1187 72.5611 90.8456 72.4665 92.734C72.33 95.4585 71.843 98.1711 71.843 100.964C71.843 102.79 70.4981 104.353 70.5962 106.116C70.7119 108.195 75.2304 105.638 75.878 105.355C81.1704 103.044 82.4414 96.0044 82.4414 90.8667C82.4414 88.6253 82.2275 86.4668 80.1209 85.265Z" fill="#27AE60" stroke="#27AE60" stroke-width="3" stroke-linecap="round"/>
<path d="M77.766 145.709C75.602 144.629 71.6751 145.328 69.3497 145.328C68.5481 147.729 68.7262 150.498 68.7262 153.109V159.955C68.7262 161.553 67.5596 164.62 68.341 166.024C68.9847 167.18 68.3472 172.226 71.1464 170.052C72.9896 168.621 75.2137 167.255 76.6577 165.401C78.0693 163.589 79.1097 161.377 80.5715 159.644C82.3141 157.578 83.1088 154.418 82.1993 151.795C81.5089 149.803 79.7641 146.706 77.766 145.709Z" fill="#27AE60" stroke="#27AE60" stroke-width="3" stroke-linecap="round"/>
<path d="M89.1434 201.394C87.4413 203.094 85.8746 204.478 83.7116 205.584C84.97 205.425 89.3866 203.724 90.2345 203.348C91.3797 202.84 92.7822 203.017 93.9924 202.639C96.636 201.814 99.3717 201.285 102.097 200.945C105.314 200.543 108.158 199.372 111.431 199.372C112.974 199.372 115.339 199.781 116.834 199.354C117.325 199.214 115.402 196.844 115.241 196.571C112.504 191.925 106.763 189.866 101.785 192.041C98.5006 193.476 95.1361 195.584 92.5896 198.127C91.4526 199.262 90.2819 200.258 89.1434 201.394Z" fill="#27AE60"/>
<path d="M83.6884 205.596C85.8634 204.488 87.4352 203.1 89.1434 201.394C90.2819 200.258 91.4526 199.262 92.5896 198.127C95.1361 195.584 98.5006 193.476 101.785 192.041C106.763 189.866 112.504 191.925 115.241 196.571C115.402 196.844 117.325 199.214 116.834 199.354C115.339 199.781 112.974 199.372 111.431 199.372C108.158 199.372 105.314 200.543 102.097 200.945C99.3717 201.285 96.636 201.814 93.9924 202.639C92.7822 203.017 91.3797 202.84 90.2345 203.348C89.3449 203.743 84.5277 205.596 83.5499 205.596" stroke="#27AE60" stroke-width="3" stroke-linecap="round"/>
<path d="M161.15 193.098C158.445 194.599 157.189 197.568 154.76 199.478L179.845 200.468C179.845 198.577 178.53 195.868 177.342 194.343C175.454 191.92 173.405 191.387 170.415 191.387C167.215 191.387 164.013 191.511 161.15 193.098Z" fill="#27AE60" stroke="#27AE60" stroke-width="3" stroke-linecap="round"/>
<path d="M60.8583 88.21C59.0787 89.9511 57.3428 91.6685 55.4839 93.3181C53.6625 94.9345 51.7886 96.1757 49.7296 97.4913C45.9598 99.9 42.6475 102.675 38.1394 103.575" stroke="#04294F" stroke-width="3" stroke-linecap="round"/>
<path d="M40.1372 226.402C40.137 254.563 32.1587 289.323 53.5655 306.924C61.0578 313.084 76.5026 315.274 83.534 311.764" stroke="#04294F" stroke-width="3" stroke-linecap="round" stroke-linejoin="round"/>
<path d="M196.457 309.563C194.192 309.979 191.695 311.013 189.577 311.953C186.225 313.44 182.32 314.09 178.808 315.238C173.468 316.983 167.653 317.328 162.057 317.328C159.936 317.328 157.167 317.393 155.177 316.731" stroke="#04294F" stroke-width="3" stroke-linecap="round"/>
<path d="M74.0731 50.4004C74.0731 76.8008 68.7844 127.226 68.7844 142.362C68.7844 161.282 70.1066 200.003 73.6324 204.403C77.1582 208.803 75.836 206.603 86.4135 204.403C96.9909 202.203 133.571 195.162 188.662 202.203" stroke="#04294F" stroke-width="3" stroke-linecap="round" stroke-linejoin="round"/>
</svg>
