<svg width="207" height="387" viewBox="0 0 207 387" fill="none" xmlns="http://www.w3.org/2000/svg">
<path d="M25.1262 243.693C29.6571 251.848 37.5862 255.586 40.9844 256.436L38.1526 262.666C36.5479 262.194 31.5827 259.438 24.5598 252.188C17.5369 244.939 17.1027 233.121 17.7635 228.118C18.3298 229.911 20.5953 235.537 25.1262 243.693Z" fill="#FFB400" stroke="#FFB400" stroke-width="0.566363"/>
<path d="M31.6371 309.957C34.5822 304.294 37.5839 294.382 38.7166 290.135L44.3803 294.099C42.4924 297.497 37.6972 307.409 33.6194 319.869C29.5415 332.329 23.4248 359.042 20.8762 370.841C18.7051 372.069 14.363 373.333 14.363 368.576C14.363 362.629 27.9557 317.037 31.6371 309.957Z" fill="#FFB400"/>
<path d="M52.3094 331.479C52.5359 321.738 51.0822 306.465 50.3271 300.046L60.8047 297.214C60.5215 298.819 59.7286 303.614 58.8224 309.957C57.6897 317.886 58.8224 328.364 58.8224 337.426C58.8224 344.675 60.144 365.178 60.8047 374.523L54.8579 376.788C53.914 365.744 52.0828 341.221 52.3094 331.479Z" fill="#FFB400"/>
<path d="M129.052 319.869C132.223 310.58 131.695 296.176 131.034 290.135L139.529 283.905V297.214C139.529 305.71 136.131 319.869 133.582 333.461C131.543 344.336 123.293 362.157 119.423 369.709L113.476 367.443C114.137 367.443 115.912 366.311 117.724 361.78C119.99 356.116 125.087 331.479 129.052 319.869Z" fill="#FFB400"/>
<path d="M150.856 328.931C154.481 307.635 150.668 282.3 148.308 272.294L150.856 243.126C153.027 249.451 158.049 269.689 160.768 300.046C163.486 330.403 152.084 361.213 146.042 372.824L138.113 369.709C140.851 364.989 147.232 350.226 150.856 328.931Z" fill="#FFB400"/>
<path d="M31.6371 309.957C34.5822 304.294 37.5839 294.382 38.7166 290.135L44.3803 294.099C42.4924 297.497 37.6972 307.409 33.6194 319.869C29.5415 332.329 23.4248 359.042 20.8762 370.841C18.7051 372.069 14.363 373.333 14.363 368.576C14.363 362.629 27.9557 317.037 31.6371 309.957Z" stroke="#FFB400" stroke-width="0.566363"/>
<path d="M52.3094 331.479C52.5359 321.738 51.0822 306.465 50.3271 300.046L60.8047 297.214C60.5215 298.819 59.7286 303.614 58.8224 309.957C57.6897 317.886 58.8224 328.364 58.8224 337.426C58.8224 344.675 60.144 365.178 60.8047 374.523L54.8579 376.788C53.914 365.744 52.0828 341.221 52.3094 331.479Z" stroke="#FFB400" stroke-width="0.566363"/>
<path d="M129.052 319.869C132.223 310.58 131.695 296.176 131.034 290.135L139.529 283.905V297.214C139.529 305.71 136.131 319.869 133.582 333.461C131.543 344.336 123.293 362.157 119.423 369.709L113.476 367.443C114.137 367.443 115.912 366.311 117.724 361.78C119.99 356.116 125.087 331.479 129.052 319.869Z" stroke="#FFB400" stroke-width="0.566363"/>
<path d="M150.856 328.931C154.481 307.635 150.668 282.3 148.308 272.294L150.856 243.126C153.027 249.451 158.049 269.689 160.768 300.046C163.486 330.403 152.084 361.213 146.042 372.824L138.113 369.709C140.851 364.989 147.232 350.226 150.856 328.931Z" stroke="#FFB400" stroke-width="0.566363"/>
<path d="M152.274 152.225C152.5 131.836 155.389 113.335 156.805 106.633L127.637 78.3145C128.581 88.7922 130.582 112.183 131.035 121.924C131.602 134.101 127.92 172.331 119.142 199.233C110.363 226.135 114.327 227.834 76.9474 235.763C39.5675 243.693 34.4702 262.383 35.0366 279.09C35.6029 295.798 52.877 309.391 79.4961 307.975C106.115 306.559 128.203 300.895 143.495 282.772C158.787 264.648 153.123 251.905 149.442 220.188C145.761 188.472 151.991 177.711 152.274 152.225Z" fill="#FFB400" stroke="#FFB400" stroke-width="0.566363"/>
<path d="M158.785 39.2356C152.668 45.3523 151.517 52.3563 151.705 55.0938L156.803 57.9256C155.859 56.9817 155.727 54.0177 162.749 49.7133C171.528 44.3329 170.679 42.0674 170.395 39.8019C170.112 37.5365 166.431 31.5897 158.785 39.2356Z" fill="#FFB400"/>
<path d="M132.732 10.3511C134.903 13.3717 139.755 21.1686 141.794 28.1915C143.802 35.1067 144.144 46.9823 144.064 52.3014L140.945 52.5451C141.228 49.7133 141.398 41.671 139.812 32.1561C138.226 22.6412 132.921 14.2212 130.467 11.2006L132.732 10.3511Z" fill="#FFB400"/>
<path d="M129.617 57.0761C127.446 54.0555 120.839 43.7665 118.007 35.8374C115.585 29.0562 112.829 22.7497 112.91 17.4306L115.458 16.5811C115.175 19.4129 117.724 26.7756 120.272 33.8552C122.821 40.9347 129.428 52.0732 131.883 55.0938L129.617 57.0761Z" fill="#FFB400"/>
<path d="M106.396 59.3415C113.193 58.8884 121.311 63.3061 124.52 65.5715L125.086 70.6688C122.915 69.8192 117.837 68.2334 114.892 68.6865C111.21 69.2529 101.299 70.6688 99.3168 68.1201C97.3345 65.5715 97.9009 59.9079 106.396 59.3415Z" fill="#FFB400"/>
<path d="M144.06 52.5451C144.061 52.4655 144.062 52.3843 144.064 52.3014M144.064 52.3014C144.144 46.9823 143.802 35.1067 141.794 28.1915C139.755 21.1686 134.903 13.3717 132.732 10.3511L130.467 11.2006C132.921 14.2212 138.226 22.6412 139.812 32.1561C141.398 41.671 141.228 49.7133 140.945 52.5451L144.064 52.3014ZM112.91 17.4306C112.908 17.5102 113.476 17.3864 112.91 17.4306ZM112.91 17.4306C112.829 22.7497 115.585 29.0562 118.007 35.8374C120.839 43.7665 127.446 54.0554 129.617 57.0761L131.883 55.0938C129.428 52.0732 122.821 40.9347 120.272 33.8552C117.724 26.7756 115.175 19.4129 115.458 16.5811L112.91 17.4306ZM151.705 55.0938C151.517 52.3563 152.668 45.3523 158.785 39.2356C166.431 31.5897 170.112 37.5365 170.395 39.8019C170.679 42.0674 171.528 44.3329 162.749 49.7133C155.727 54.0177 155.859 56.9817 156.803 57.9256L151.705 55.0938ZM124.52 65.5715C121.311 63.3061 113.193 58.8884 106.396 59.3415C97.9009 59.9079 97.3345 65.5715 99.3168 68.1201C101.299 70.6688 111.21 69.2529 114.892 68.6865C117.837 68.2334 122.915 69.8192 125.086 70.6688L124.52 65.5715Z" stroke="#FFB400" stroke-width="0.566363"/>
<path d="M155.104 56.7928C160.541 60.4176 181.723 76.0491 191.635 83.4119L171.246 95.8719L157.37 107.765C152.65 105.783 141.625 99.7798 135.282 91.6241C127.353 81.4296 118.857 65.2883 128.768 57.3592C138.68 49.4301 148.308 52.2619 155.104 56.7928Z" fill="#FFB400" stroke="#FFB400" stroke-width="0.566363"/>
<path d="M161.618 94.4561C169.547 84.2616 184.178 83.2232 190.502 83.9784C192.39 82.6568 197.412 80.9766 202.396 84.8279C208.626 89.642 207.21 100.686 194.75 112.297C182.29 123.907 170.68 122.208 165.582 120.226C160.485 118.243 151.707 107.199 161.618 94.4561Z" fill="#FFB400" stroke="#FFB400" stroke-width="0.566363"/>
<path d="M183.706 113.712C191.408 112.806 194.656 104.084 195.316 99.8364C194.278 101.347 190.672 104.99 184.556 107.482C178.439 109.974 171.812 106.444 169.264 104.367C170.868 107.86 176.003 114.619 183.706 113.712Z" fill="white" stroke="white" stroke-width="0.566363" stroke-linejoin="round"/>
<path d="M185.688 109.182C187.047 108.729 189.464 109.559 190.502 110.031C189.747 110.975 187.444 113.033 184.272 113.713C181.1 114.392 178.042 113.429 176.909 112.863C177.287 112.297 178.382 110.937 179.741 110.031C181.1 109.125 182.95 109.842 183.706 110.314C183.8 110.126 184.329 109.635 185.688 109.182Z" fill="#222222" stroke="#222222" stroke-width="0.566363" stroke-linejoin="round"/>
<path d="M166.999 73.784C164.28 71.9716 165.677 66.9876 166.716 64.7222L178.609 73.5008C175.872 74.3503 169.717 75.5963 166.999 73.784Z" fill="#F04E23"/>
<path d="M138.114 86.244C139.247 84.4316 143.117 86.244 144.911 87.3767C146.138 88.2262 148.535 90.5483 148.309 93.0403C148.026 96.1553 143.212 95.8722 140.38 93.8899C137.548 91.9076 136.698 88.5094 138.114 86.244Z" fill="#F04E23"/>
<path d="M135.566 107.766C135.792 104.821 132.262 102.952 130.468 102.385L131.035 112.58C132.451 112.202 135.339 110.711 135.566 107.766Z" fill="#F04E23"/>
<path d="M148.026 120.792C148.026 118.074 152.179 119.282 154.256 120.226C154.161 123.624 153.689 130.307 152.557 129.854C151.141 129.288 148.026 124.19 148.026 120.792Z" fill="#F04E23"/>
<path d="M135.566 121.925C137.378 119.659 142.221 123.624 142.928 126.456C143.212 127.589 143.495 128.268 143.495 130.987C143.495 134.385 142.079 139.765 138.114 138.066C134.943 136.707 136.038 131.27 136.982 128.721C135.755 127.4 133.753 124.19 135.566 121.925Z" fill="#F04E23"/>
<path d="M145.477 145.712C148.875 144.579 151.424 146.184 152.273 147.128V155.057C151.33 153.547 149.385 151.262 149.158 154.208C148.875 157.889 146.327 162.703 144.344 160.721C142.362 158.738 145.477 156.19 145.477 153.924C145.477 151.659 141.229 147.128 145.477 145.712Z" fill="#F04E23"/>
<path d="M129.619 156.473C131.431 154.208 135.283 157.606 136.698 160.154C138.114 162.703 138.228 169.499 135.283 169.499C131.601 169.499 131.884 165.252 131.318 164.119C130.752 162.986 127.353 159.305 129.619 156.473Z" fill="#F04E23"/>
<path d="M141.229 177.145C145.307 175.786 146.704 177.712 146.893 178.844C147.176 181.676 144.344 181.959 143.778 182.809C143.212 183.658 143.778 184.508 143.778 186.49C143.778 188.473 142.645 189.605 139.247 189.888C135.849 190.172 136.132 186.773 137.265 185.641C138.398 184.508 138.398 182.526 138.114 181.959C137.831 181.393 136.132 178.844 141.229 177.145Z" fill="#F04E23"/>
<path d="M127.637 187.906C128.996 184.508 125.56 183.092 123.672 182.809L121.973 189.888C123.295 190.644 126.277 191.304 127.637 187.906Z" fill="#F04E23"/>
<path d="M129.619 208.862C127.807 205.463 127.637 200.933 130.185 199.233C132.734 197.534 135.679 200.083 138.398 203.481C141.796 207.729 139.247 211.41 138.398 212.543C137.548 213.676 131.884 213.109 129.619 208.862Z" fill="#F04E23"/>
<path d="M113.194 236.33C122.03 230.893 117.82 219.528 114.61 214.525C114.138 216.413 112.288 221.152 108.663 225.003C105.039 228.854 98.6577 230.761 95.9203 231.233C95.8259 231.705 95.6938 232.875 95.9203 233.782C96.2035 234.914 102.15 243.127 113.194 236.33Z" fill="#F04E23"/>
<path d="M130.185 228.684C130.185 226.192 134.716 225.569 137.265 228.684C139.813 231.799 137.111 237.149 133.017 236.33C128.769 235.481 130.185 231.799 130.185 228.684Z" fill="#F04E23"/>
<path d="M127.637 253.321C132.847 249.243 137.17 252.755 138.681 255.02C139.247 255.775 140.04 258.305 138.681 262.383C136.982 267.48 129.619 267.197 127.07 266.064C124.522 264.932 121.123 258.418 127.637 253.321Z" fill="#F04E23"/>
<path d="M98.469 256.719C101.641 258.079 106.776 257.663 108.947 257.286C109.702 257.286 111.439 258.362 112.345 262.666C113.478 268.047 108.947 269.746 105.549 270.312C102.15 270.878 97.9026 266.064 95.0708 269.179C92.239 272.294 87.4249 272.294 82.0444 269.179C76.664 266.064 79.2126 262.383 81.4781 259.551C83.7435 256.719 94.5044 255.02 98.469 256.719Z" fill="#F04E23"/>
<path d="M79.4958 250.206C86.0656 247.488 83.5547 238.879 81.4781 234.914C78.9294 235.481 74.3985 236.33 71.0003 237.18C67.6021 238.029 61.1834 240.389 57.6908 241.711C57.2188 244.92 57.1244 251.622 60.5226 252.755C64.7703 254.171 66.4694 249.073 67.6021 248.79C68.7349 248.507 71.2835 253.604 79.4958 250.206Z" fill="#F04E23"/>
<path d="M50.3281 266.631C50.3281 264.139 53.7262 263.705 55.4253 263.799C56.1805 264.932 57.6908 267.707 57.6908 269.746C57.6908 272.294 55.4253 273.144 52.8767 272.578C50.3281 272.011 50.3281 269.746 50.3281 266.631Z" fill="#F04E23"/>
<path d="M166.999 73.784C164.28 71.9716 165.677 66.9876 166.716 64.7222L178.609 73.5008C175.872 74.3503 169.717 75.5963 166.999 73.784Z" stroke="#F04E23" stroke-width="1.69909" stroke-linejoin="round"/>
<path d="M138.114 86.244C139.247 84.4316 143.117 86.244 144.911 87.3767C146.138 88.2262 148.535 90.5483 148.309 93.0403C148.026 96.1553 143.212 95.8722 140.38 93.8899C137.548 91.9076 136.698 88.5094 138.114 86.244Z" stroke="#F04E23" stroke-width="1.69909" stroke-linejoin="round"/>
<path d="M135.566 107.766C135.792 104.821 132.262 102.952 130.468 102.385L131.035 112.58C132.451 112.202 135.339 110.711 135.566 107.766Z" stroke="#F04E23" stroke-width="1.69909" stroke-linejoin="round"/>
<path d="M148.026 120.792C148.026 118.074 152.179 119.282 154.256 120.226C154.161 123.624 153.689 130.307 152.557 129.854C151.141 129.288 148.026 124.19 148.026 120.792Z" stroke="#F04E23" stroke-width="1.69909" stroke-linejoin="round"/>
<path d="M135.566 121.925C137.378 119.659 142.221 123.624 142.928 126.456C143.212 127.589 143.495 128.268 143.495 130.987C143.495 134.385 142.079 139.765 138.114 138.066C134.943 136.707 136.038 131.27 136.982 128.721C135.755 127.4 133.753 124.19 135.566 121.925Z" stroke="#F04E23" stroke-width="1.69909" stroke-linejoin="round"/>
<path d="M145.477 145.712C148.875 144.579 151.424 146.184 152.273 147.128V155.057C151.33 153.547 149.385 151.262 149.158 154.208C148.875 157.889 146.327 162.703 144.344 160.721C142.362 158.738 145.477 156.19 145.477 153.924C145.477 151.659 141.229 147.128 145.477 145.712Z" stroke="#F04E23" stroke-width="1.69909" stroke-linejoin="round"/>
<path d="M129.619 156.473C131.431 154.208 135.283 157.606 136.698 160.154C138.114 162.703 138.228 169.499 135.283 169.499C131.601 169.499 131.884 165.252 131.318 164.119C130.752 162.986 127.353 159.305 129.619 156.473Z" stroke="#F04E23" stroke-width="1.69909" stroke-linejoin="round"/>
<path d="M141.229 177.145C145.307 175.786 146.704 177.712 146.893 178.844C147.176 181.676 144.344 181.959 143.778 182.809C143.212 183.658 143.778 184.508 143.778 186.49C143.778 188.473 142.645 189.605 139.247 189.888C135.849 190.172 136.132 186.773 137.265 185.641C138.398 184.508 138.398 182.526 138.114 181.959C137.831 181.393 136.132 178.844 141.229 177.145Z" stroke="#F04E23" stroke-width="1.69909" stroke-linejoin="round"/>
<path d="M127.637 187.906C128.996 184.508 125.56 183.092 123.672 182.809L121.973 189.888C123.295 190.644 126.277 191.304 127.637 187.906Z" stroke="#F04E23" stroke-width="1.69909" stroke-linejoin="round"/>
<path d="M129.619 208.862C127.807 205.463 127.637 200.933 130.185 199.233C132.734 197.534 135.679 200.083 138.398 203.481C141.796 207.729 139.247 211.41 138.398 212.543C137.548 213.676 131.884 213.109 129.619 208.862Z" stroke="#F04E23" stroke-width="1.69909" stroke-linejoin="round"/>
<path d="M113.194 236.33C122.03 230.893 117.82 219.528 114.61 214.525C114.138 216.413 112.288 221.152 108.663 225.003C105.039 228.854 98.6577 230.761 95.9203 231.233C95.8259 231.705 95.6938 232.875 95.9203 233.782C96.2035 234.914 102.15 243.127 113.194 236.33Z" stroke="#F04E23" stroke-width="1.69909" stroke-linejoin="round"/>
<path d="M130.185 228.684C130.185 226.192 134.716 225.569 137.265 228.684C139.813 231.799 137.111 237.149 133.017 236.33C128.769 235.481 130.185 231.799 130.185 228.684Z" stroke="#F04E23" stroke-width="1.69909" stroke-linejoin="round"/>
<path d="M127.637 253.321C132.847 249.243 137.17 252.755 138.681 255.02C139.247 255.775 140.04 258.305 138.681 262.383C136.982 267.48 129.619 267.197 127.07 266.064C124.522 264.932 121.123 258.418 127.637 253.321Z" stroke="#F04E23" stroke-width="1.69909" stroke-linejoin="round"/>
<path d="M98.469 256.719C101.641 258.079 106.776 257.663 108.947 257.286C109.702 257.286 111.439 258.362 112.345 262.666C113.478 268.047 108.947 269.746 105.549 270.312C102.15 270.878 97.9026 266.064 95.0708 269.179C92.239 272.294 87.4249 272.294 82.0444 269.179C76.664 266.064 79.2126 262.383 81.4781 259.551C83.7435 256.719 94.5044 255.02 98.469 256.719Z" stroke="#F04E23" stroke-width="1.69909" stroke-linejoin="round"/>
<path d="M79.4958 250.206C86.0656 247.488 83.5547 238.879 81.4781 234.914C78.9294 235.481 74.3985 236.33 71.0003 237.18C67.6021 238.029 61.1834 240.389 57.6908 241.711C57.2188 244.92 57.1244 251.622 60.5226 252.755C64.7703 254.171 66.4694 249.073 67.6021 248.79C68.7349 248.507 71.2835 253.604 79.4958 250.206Z" stroke="#F04E23" stroke-width="1.69909" stroke-linejoin="round"/>
<path d="M50.3281 266.631C50.3281 264.139 53.7262 263.705 55.4253 263.799C56.1805 264.932 57.6908 267.707 57.6908 269.746C57.6908 272.294 55.4253 273.144 52.8767 272.578C50.3281 272.011 50.3281 269.746 50.3281 266.631Z" stroke="#F04E23" stroke-width="1.69909" stroke-linejoin="round"/>
<path d="M126.222 7.80284C124.636 4.63121 125.939 2.328 126.788 1.57285C127.26 0.817694 128.94 0.213573 131.885 3.8383C134.831 7.46302 133.113 10.0683 131.885 10.9178C130.658 11.201 127.808 10.9745 126.222 7.80284Z" fill="#C07A5F"/>
<path d="M110.081 7.80284C113.932 6.6701 115.272 9.59633 115.461 11.201C115.839 12.9001 116.084 16.4682 114.045 17.1479C112.006 17.8275 110.175 16.2983 109.514 15.4488C108.098 13.3721 106.229 8.93558 110.081 7.80284Z" fill="#C07A5F"/>
<path d="M20.3835 232.792L20.312 232.932L17.1969 224.72L16.6306 236.047L1.05559 226.985C0.678024 223.682 2.07504 215.658 10.6838 209.995C21.4447 202.915 28.8074 211.694 31.356 215.375C27.9872 217.845 23.1342 227.385 20.3835 232.792Z" fill="#C07A5F"/>
<path d="M139.531 367.16C140.438 366.934 145.006 370.087 147.177 371.691C146.045 373.674 144.912 383.302 142.93 383.302C140.947 383.302 140.947 381.32 140.381 381.036C139.815 380.753 139.815 383.585 137.266 381.886C134.717 380.187 138.399 367.444 139.531 367.16Z" fill="#C07A5F"/>
<path d="M116.877 367.727C119.142 368.86 120.464 368.01 120.841 367.444C120.653 368.86 120.105 372.654 119.426 376.505C118.576 381.32 116.027 379.054 115.461 378.488C114.895 377.921 114.611 376.789 113.196 377.355C111.78 377.921 110.93 375.373 111.496 373.39C112.063 371.408 112.346 366.594 113.196 365.745C114.045 364.895 114.045 366.311 116.877 367.727Z" fill="#C07A5F"/>
<path d="M61.6565 385.284C64.375 385.058 62.6004 377.827 61.3733 374.24L54.2938 373.39C54.105 373.674 53.7274 375.033 53.7274 378.205C53.7274 382.169 55.4265 385.001 56.5592 385.284C57.6919 385.567 57.6919 383.868 58.5415 383.868C59.391 383.868 58.2583 385.567 61.6565 385.284Z" fill="#C07A5F"/>
<path d="M12.666 377.921C11.3068 374.523 13.0436 370.842 14.082 369.426C14.9315 369.803 17.027 370.672 18.6129 371.125C20.1987 371.578 20.9727 369.615 21.1615 368.576C21.2559 368.765 21.6146 369.822 22.2942 372.541C23.1438 375.939 23.427 382.735 21.7279 383.302C20.0288 383.868 19.1792 380.47 18.3297 380.753C17.4801 381.036 17.1969 382.452 16.6306 382.735C16.0642 383.019 14.3651 382.169 12.666 377.921Z" fill="#C07A5F"/>
<path d="M160.487 46.0324C157.768 47.8448 155.484 53.0175 154.54 55.6606C155.295 56.6989 156.522 57.8694 156.522 56.5101C156.522 54.811 159.071 52.8288 160.487 51.696C161.62 50.7898 166.056 47.5427 168.133 46.0324C166.717 45.2772 163.205 44.22 160.487 46.0324Z" fill="#C07A5F"/>
<path d="M106.116 65.0056C109.741 65.0056 114.423 67.271 116.311 68.4037C113.762 68.9701 108.155 70.1028 106.116 70.1028C104.077 70.1028 100.358 68.215 98.7533 67.271C99.6972 66.5159 102.491 65.0056 106.116 65.0056Z" fill="#C07A5F"/>
<path d="M126.222 7.80284C124.636 4.63121 125.939 2.328 126.788 1.57285C127.26 0.817694 128.94 0.213573 131.885 3.8383C134.831 7.46302 133.113 10.0683 131.885 10.9178C130.658 11.201 127.808 10.9745 126.222 7.80284Z" stroke="#C07A5F" stroke-width="1.69909" stroke-linejoin="round"/>
<path d="M110.081 7.80284C113.932 6.6701 115.272 9.59633 115.461 11.201C115.839 12.9001 116.084 16.4682 114.045 17.1479C112.006 17.8275 110.175 16.2983 109.514 15.4488C108.098 13.3721 106.229 8.93558 110.081 7.80284Z" stroke="#C07A5F" stroke-width="1.69909" stroke-linejoin="round"/>
<path d="M20.3835 232.792L20.312 232.932L17.1969 224.72L16.6306 236.047L1.05559 226.985C0.678024 223.682 2.07504 215.658 10.6838 209.995C21.4447 202.915 28.8074 211.694 31.356 215.375C27.9872 217.845 23.1342 227.385 20.3835 232.792Z" stroke="#C07A5F" stroke-width="1.69909" stroke-linejoin="round"/>
<path d="M139.531 367.16C140.438 366.934 145.006 370.087 147.177 371.691C146.045 373.674 144.912 383.302 142.93 383.302C140.947 383.302 140.947 381.32 140.381 381.036C139.815 380.753 139.815 383.585 137.266 381.886C134.717 380.187 138.399 367.444 139.531 367.16Z" stroke="#C07A5F" stroke-width="1.69909" stroke-linejoin="round"/>
<path d="M116.877 367.727C119.142 368.86 120.464 368.01 120.841 367.444C120.653 368.86 120.105 372.654 119.426 376.505C118.576 381.32 116.027 379.054 115.461 378.488C114.895 377.921 114.611 376.789 113.196 377.355C111.78 377.921 110.93 375.373 111.496 373.39C112.063 371.408 112.346 366.594 113.196 365.745C114.045 364.895 114.045 366.311 116.877 367.727Z" stroke="#C07A5F" stroke-width="1.69909" stroke-linejoin="round"/>
<path d="M61.6565 385.284C64.375 385.058 62.6004 377.827 61.3733 374.24L54.2938 373.39C54.105 373.674 53.7274 375.033 53.7274 378.205C53.7274 382.169 55.4265 385.001 56.5592 385.284C57.6919 385.567 57.6919 383.868 58.5415 383.868C59.391 383.868 58.2583 385.567 61.6565 385.284Z" stroke="#C07A5F" stroke-width="1.69909" stroke-linejoin="round"/>
<path d="M12.666 377.921C11.3068 374.523 13.0436 370.842 14.082 369.426C14.9315 369.803 17.027 370.672 18.6129 371.125C20.1987 371.578 20.9727 369.615 21.1615 368.576C21.2559 368.765 21.6146 369.822 22.2942 372.541C23.1438 375.939 23.427 382.735 21.7279 383.302C20.0288 383.868 19.1792 380.47 18.3297 380.753C17.4801 381.036 17.1969 382.452 16.6306 382.735C16.0642 383.019 14.3651 382.169 12.666 377.921Z" stroke="#C07A5F" stroke-width="1.69909" stroke-linejoin="round"/>
<path d="M160.487 46.0324C157.768 47.8448 155.484 53.0175 154.54 55.6606C155.295 56.6989 156.522 57.8694 156.522 56.5101C156.522 54.811 159.071 52.8288 160.487 51.696C161.62 50.7898 166.056 47.5427 168.133 46.0324C166.717 45.2772 163.205 44.22 160.487 46.0324Z" stroke="#C07A5F" stroke-width="1.69909" stroke-linejoin="round"/>
<path d="M106.116 65.0056C109.741 65.0056 114.423 67.271 116.311 68.4037C113.762 68.9701 108.155 70.1028 106.116 70.1028C104.077 70.1028 100.358 68.215 98.7533 67.271C99.6972 66.5159 102.491 65.0056 106.116 65.0056Z" stroke="#C07A5F" stroke-width="1.69909" stroke-linejoin="round"/>
<path d="M189.088 86.8104C189.088 87.7488 189.849 89.9254 190.787 89.9254C191.726 89.9254 192.77 89.1647 192.77 88.2263C192.77 87.2879 191.726 85.1113 190.787 85.1113C189.849 85.1113 189.088 85.872 189.088 86.8104Z" fill="#222222"/>
<path d="M182.006 91.9076C182.006 92.846 183.333 95.0226 184.272 95.0226C185.21 95.0226 186.254 94.2619 186.254 93.3235C186.254 92.3851 185.21 90.2085 184.272 90.2085C183.333 90.2085 182.006 90.9692 182.006 91.9076Z" fill="#222222"/>
<ellipse rx="4.53091" ry="5.38045" transform="matrix(-0.887538 0.460734 0.460734 0.887538 151.717 65.3551)" fill="white"/>
<ellipse rx="3.92249" ry="4.65795" transform="matrix(-0.887538 0.460734 0.460734 0.887538 152.594 65.5663)" fill="#222222"/>
<ellipse rx="4.53091" ry="5.38045" transform="matrix(-0.887538 0.460734 0.460734 0.887538 139.825 72.7184)" fill="white"/>
<ellipse rx="3.92249" ry="4.65795" transform="matrix(-0.887538 0.460734 0.460734 0.887538 141.264 72.9291)" fill="#222222"/>
<path d="M187.67 82.2793C182.856 82.2793 159.069 82.8456 157.086 105.217C156.835 108.049 157.369 113.429 161.9 117.96M127.635 80.2969C129.051 83.3175 140.095 97.4577 146.892 102.668M23.7077 211.977C21.8198 216.035 20.6494 223.304 20.8759 226.702M9.54863 215.375C7.66076 219.434 14.9857 228.967 15.2123 232.366M15.7786 217.074C15.4955 218.773 15.4955 219.906 15.7786 221.038M153.405 267.197C151.706 270.595 143.777 291.834 120.839 299.48M141.228 376.222C140.662 378.77 140.095 380.979 140.095 381.885M114.609 374.239C114.043 376.788 115.459 377.015 115.459 377.921M57.1232 381.319C57.6895 383.301 58.2559 383.868 58.2559 384.717M16.0618 376.505C15.4955 379.054 17.7609 380.696 17.7609 381.602" stroke="#04294F" stroke-width="2.98183" stroke-linecap="round" stroke-linejoin="round"/>
</svg>
